<?xml version="1.0" encoding="UTF-8"?>
<svg version="1.1" xmlns="http://www.w3.org/2000/svg" width="866" height="650">
<path d="M0 0 C285.78 0 571.56 0 866 0 C866 214.5 866 429 866 650 C580.22 650 294.44 650 0 650 C0 435.5 0 221 0 0 Z " fill="#FEFEFE" transform="translate(0,0)"/>
<path d="M0 0 C4.75377003 23.23950339 9.48862979 53.5659242 -3.78366292 74.77902102 C-10.786985 85.06783652 -19.37510456 94.04423499 -28.18359375 102.7890625 C-28.8895155 103.48996348 -29.59543725 104.19086447 -30.32275057 104.91300488 C-39.12761714 113.59809283 -48.20637494 121.96634692 -57.39775145 130.23901916 C-65.32312458 137.38531201 -73.04863104 144.73436877 -80.76650703 152.10328603 C-93.93052388 164.66744315 -107.21525851 177.08844912 -120.68907166 189.32002258 C-121.52782344 190.08411613 -121.52782344 190.08411613 -122.38351971 190.86364591 C-123.87425882 192.22124379 -125.36816306 193.57536388 -126.86231136 194.92920876 C-129.04584386 196.81563268 -129.04584386 196.81563268 -130 199 C-130.66 199 -131.32 199 -132 199 C-132.268125 199.61875 -132.53625 200.2375 -132.8125 200.875 C-134 203 -134 203 -137 205 C-199.89311218 142.10688782 -199.89311218 142.10688782 -201.49072838 140.5082798 C-202.92900944 139.07094391 -204.37070582 137.63702798 -205.81257629 136.20329285 C-207.65828203 134.34419704 -209.34501904 132.46391135 -211 130.4375 C-213.42742728 127.55570813 -216.03916447 125.33750174 -219 123 C-220.34736973 121.34466005 -221.68334336 119.67987227 -223 118 C-223.99 117.505 -223.99 117.505 -225 117 C-224.9981014 117.62101093 -224.9962028 118.24202187 -224.99424666 118.88185132 C-224.88224661 155.72487659 -224.79651189 192.5678766 -224.74467335 229.41103739 C-224.73842016 233.83929214 -224.73194851 238.26754655 -224.7253418 242.69580078 C-224.72403024 243.57735041 -224.72271869 244.45890003 -224.7213674 245.36716329 C-224.69963757 259.62291649 -224.66022947 273.87856841 -224.61423602 288.13426162 C-224.56740382 302.77250354 -224.53969033 317.41069258 -224.52955753 332.04900634 C-224.52271236 341.07460238 -224.50112815 350.0999121 -224.46041767 359.12541996 C-224.43389569 365.32272444 -224.42602029 371.51988187 -224.43249311 377.71723892 C-224.43568141 381.28768922 -224.43095127 384.85764081 -224.40397263 388.4280014 C-224.16269587 422.03264297 -224.16269587 422.03264297 -236 435 C-236.82564453 435.99580078 -236.82564453 435.99580078 -237.66796875 437.01171875 C-245.24399996 445.4923507 -256.66783933 451.00666212 -268 452 C-269.65 452 -271.3 452 -273 452 C-273 303.17 -273 154.34 -273 1 C-265.2097561 6.56445993 -265.2097561 6.56445993 -262.625 9.8125 C-260.10228493 12.82731419 -257.47688223 15.43180838 -254.5 18 C-250.91452335 21.10095278 -247.87040477 24.3746362 -244.8203125 27.9921875 C-242.12796929 30.96185362 -239.09666442 33.49996523 -236.0703125 36.12109375 C-233.39059458 38.55306416 -231.25938973 41.17576283 -229 44 C-226.44387364 46.68720976 -223.8800189 49.09748464 -221 51.4375 C-217.92096119 54.06751232 -215.54921599 56.8625034 -213 60 C-211.34597502 61.67921318 -209.67758732 63.34432601 -208 65 C-197 76 -197 76 -194.34375 78.69140625 C-191.96657061 81.10633412 -191.96657061 81.10633412 -189 83.4375 C-185.92096119 86.06751232 -183.54921599 88.8625034 -181 92 C-178.44387364 94.68720976 -175.8800189 97.09748464 -173 99.4375 C-169.92096119 102.06751232 -167.54921599 104.8625034 -165 108 C-162.44387364 110.68720976 -159.8800189 113.09748464 -157 115.4375 C-153.92096119 118.06751232 -151.54921599 120.8625034 -149 124 C-146.36259973 126.77265157 -143.66631942 129.29605342 -140.6875 131.6875 C-139.800625 132.450625 -138.91375 133.21375 -138 134 C-138 134.66 -138 135.32 -138 136 C-130.67029003 129.88213865 -123.99421512 123.12190632 -117.26586914 116.36352539 C-115.9956155 115.09134972 -114.72513188 113.81940365 -113.45443726 112.54766846 C-110.73299997 109.82308535 -108.01312017 107.09696051 -105.29445076 104.36961555 C-100.99906603 100.06066063 -96.69982655 95.75556558 -92.40000916 91.45103455 C-83.28453384 82.32448832 -74.1733143 73.19369884 -65.0625 64.0625 C-55.20176677 54.17974683 -45.34030061 44.29773148 -35.47397703 34.42055887 C-31.19522245 30.13680928 -26.91892041 25.85063058 -22.64445221 21.56260407 C-19.99536959 18.9060948 -17.34424616 16.25162962 -14.69254684 13.59773254 C-13.4584713 12.36177565 -12.22526504 11.12495013 -10.99296761 9.88722038 C-9.3188367 8.20593832 -7.64170924 6.52770534 -5.96376038 4.85023499 C-5.47019785 4.35307749 -4.97663531 3.85592 -4.46811634 3.34369713 C-1.11409341 0 -1.11409341 0 0 0 Z " fill="#0174BD" transform="translate(570,99)"/>
<path d="M0 0 C0 109.56 0 219.12 0 332 C-14.66170838 332 -24.77077842 328.19199255 -35.703125 318.48828125 C-48.08647448 305.55093982 -49.29739647 289.04977704 -49.31884766 272.16748047 C-49.32815992 270.48129299 -49.3383305 268.79511008 -49.34928894 267.1089325 C-49.37645676 262.55802653 -49.39169891 258.0071513 -49.40471697 253.45618582 C-49.42040568 248.69024753 -49.44717745 243.92437145 -49.4727478 239.15847778 C-49.51943432 230.14547064 -49.55622729 221.13245167 -49.58942068 212.11938584 C-49.62771383 201.85328892 -49.67710504 191.58725464 -49.72740483 181.32121062 C-49.83057397 160.21418674 -49.91988299 139.10712315 -50 118 C-50.39222842 118.39222842 -50.78445684 118.78445684 -51.18857098 119.18857098 C-123.47550964 191.47550964 -123.47550964 191.47550964 -125.31767845 193.3137722 C-126.38413854 194.38270855 -127.44591373 195.45635659 -128.50118446 196.53634071 C-130.85883328 198.9424051 -132.85264764 200.71774533 -136 202 C-136 202.66 -136 203.32 -136 204 C-137.42761993 205.40817356 -137.42761993 205.40817356 -139.42687988 207.05897522 C-144.24935661 211.16356777 -148.70372674 215.57044604 -153.16992188 220.05639648 C-154.04891144 220.93524002 -154.927901 221.81408356 -155.83352661 222.71955872 C-158.21909218 225.10569737 -160.60243218 227.49401715 -162.98476982 229.88337588 C-165.48400771 232.38890858 -167.9861197 234.89156791 -170.48791504 237.39454651 C-175.21415202 242.12387886 -179.93783634 246.85575217 -184.66058588 251.58856684 C-190.0419887 256.98118679 -195.42626612 262.37093272 -200.8107748 267.7604512 C-211.87702865 278.83712877 -222.93970635 289.91737084 -234 301 C-234.69302011 300.3947828 -234.69302011 300.3947828 -235.40004063 299.77733898 C-236.32405627 298.97661449 -236.32405627 298.97661449 -237.26673889 298.15971375 C-237.8731273 297.63248561 -238.47951571 297.10525747 -239.10427952 296.56205273 C-240.91882965 295.06688347 -242.77271223 293.74160858 -244.73217773 292.44458008 C-256.92220308 284.32086981 -270.43858921 274.07109745 -273.89337158 259.13861084 C-277.15028463 238.55543187 -274.9078587 216.62845181 -273 196 C-269.1852145 197.7762131 -266.78529512 199.99903011 -263.82421875 203.015625 C-263.33597122 203.5090741 -262.84772369 204.00252319 -262.34468079 204.51092529 C-260.78743593 206.08591888 -259.23703542 207.6674239 -257.6875 209.25 C-255.6531729 211.32111711 -253.61555641 213.38891725 -251.57421875 215.453125 C-251.08626328 215.946987 -250.5983078 216.440849 -250.0955658 216.94967651 C-246.55000434 220.51195467 -242.85487244 223.78066058 -239 227 C-237.0625 229.375 -237.0625 229.375 -236 231 C-232.25318883 229.44006294 -229.89241999 227.12820227 -227.05126953 224.26245117 C-226.57264465 223.78251205 -226.09401978 223.30257294 -225.60089111 222.80809021 C-224.02354575 221.2242675 -222.45330083 219.63358841 -220.8828125 218.04296875 C-219.78240295 216.93628359 -218.6814732 215.83011547 -217.58004761 214.72444153 C-214.68141818 211.81251726 -211.78840278 208.89508432 -208.89697266 205.97601318 C-204.27775324 201.31367554 -199.65188564 196.65796002 -195.02260971 192.00560951 C-193.412787 190.38563232 -191.80646314 188.76224607 -190.20046997 187.13847351 C-189.20293968 186.13410742 -188.20529537 185.12985456 -187.20751953 184.12573242 C-186.34466339 183.25462326 -185.48180725 182.3835141 -184.59280396 181.48600769 C-182.78644562 179.75405232 -180.91044401 178.09310347 -178.98703003 176.49214172 C-176.14455737 174.12060725 -173.60060282 171.6318218 -171 169 C-170.15459813 168.15275455 -169.30919626 167.30550909 -168.43817616 166.43258953 C-167.52358977 165.51540551 -166.60900339 164.59822149 -165.66670227 163.65324402 C-164.60029194 162.58390201 -163.53387519 161.5145664 -162.467453 160.44523621 C-161.90365118 159.87988348 -161.33984936 159.31453075 -160.75896263 158.73204613 C-147.77722742 145.71493571 -134.78976078 132.70355624 -121.79903889 119.69541454 C-114.29064167 112.17667791 -106.78414902 104.65605747 -99.28198242 97.13110352 C-92.72969928 90.55892869 -86.17394521 83.99023984 -79.61394471 77.42576772 C-76.142754 73.95196468 -72.67335935 70.47640879 -69.20812416 66.99666405 C-65.95468319 63.7297069 -62.69664402 60.4674092 -59.43492889 57.20871353 C-58.23587669 56.00910869 -57.03855217 54.80777422 -55.84304619 53.60463524 C-54.21736216 51.96907699 -52.58571421 50.33971748 -50.9523468 48.71183777 C-50.0388915 47.79653888 -49.12543619 46.88123999 -48.18430042 45.93820477 C-46 44 -46 44 -44 44 C-43.773125 43.443125 -43.54625 42.88625 -43.3125 42.3125 C-41.62449964 39.33840412 -39.53323483 37.27991135 -37 35 C-36.34 35 -35.68 35 -35 35 C-34.78214844 34.44441406 -34.56429687 33.88882813 -34.33984375 33.31640625 C-32.579993 30.27386544 -30.17254173 28.22943792 -27.5625 25.9375 C-20.5047992 19.60324436 -13.84114253 12.90112882 -7.18579102 6.14819336 C-6.00327759 4.95335327 -6.00327759 4.95335327 -4.796875 3.734375 C-3.73484863 2.65494629 -3.73484863 2.65494629 -2.65136719 1.55371094 C-1 0 -1 0 0 0 Z " fill="#0174BD" transform="translate(667,139)"/>
<path d="M0 0 C8.95454545 6.71590909 8.95454545 6.71590909 12.5 10.875 C15.82407946 14.69026646 19.24116448 18.3081453 22.8828125 21.8203125 C24.72993849 23.72196619 26.40789992 25.67282001 28.11238575 27.70019817 C30.60708482 30.57436694 33.14858057 33.04542639 36.11694622 35.42429066 C43.36031319 41.39224557 48.68171284 46.61943882 49.79614604 56.25035799 C50.086132 61.63698614 50.01876753 66.98502621 49.89575195 72.37573242 C49.89943098 74.80033823 49.91009951 77.22494185 49.9271698 79.64949036 C49.95030458 85.51535812 49.90014263 91.37715649 49.81529234 97.24238273 C49.71975381 104.08863961 49.71183289 110.93420585 49.70742621 117.78102652 C49.69683207 130.00481219 49.61146721 142.22689758 49.48168945 154.44995117 C49.35617554 166.28047974 49.27829471 178.10997813 49.25610352 189.94116211 C49.25472696 190.6703832 49.2533504 191.39960428 49.25193212 192.15092298 C49.24919484 193.62021703 49.24646437 195.0895111 49.24374075 196.55880519 C49.24239136 197.28379121 49.24104196 198.00877724 49.23965168 198.75573254 C49.23832529 199.47902105 49.2369989 200.20230957 49.23563232 200.94751592 C49.21323909 212.26709459 49.15219053 223.58650838 49.08523214 234.90589961 C49.06527877 238.31404923 49.04733153 241.722187 49.03387475 245.13036895 C49.00316882 252.89887849 48.94982993 260.66665353 48.8582325 268.43473625 C48.83415549 270.78193891 48.81825328 273.12924266 48.81135941 275.47655869 C48.74901403 293.57452691 47.02819675 306.68428974 33.90234375 320.15234375 C24.48044843 329.07572609 13.00823256 334 0 334 C0 223.78 0 113.56 0 0 Z " fill="#0174BD" transform="translate(199,138)"/>
<path d="M0 0 C0 59.4 0 118.8 0 180 C-13.72321233 180 -23.95539645 176.23735959 -34.2578125 166.96875 C-43.56614859 157.20030604 -48.23827506 145.22214154 -48.40161133 131.85864258 C-48.4195726 130.96981384 -48.43753387 130.08098511 -48.45603943 129.16522217 C-48.51048844 126.24170105 -48.54864943 123.31836587 -48.58203125 120.39453125 C-48.59392675 119.38990026 -48.60582226 118.38526928 -48.61807823 117.35019493 C-48.67724584 112.03257932 -48.72111539 106.71504865 -48.75512695 101.3972168 C-48.78626462 97.01534259 -48.8489193 92.63567632 -48.93969727 88.25463867 C-49.04966169 82.94240826 -49.10477509 77.63220059 -49.12152672 72.3188839 C-49.13671937 70.30503086 -49.17057253 68.29122192 -49.22416115 66.27802467 C-49.66030627 48.93516147 -49.66030627 48.93516147 -44.08212566 42.26861858 C-41.84029225 39.92514627 -39.62101561 37.92099136 -37 36 C-36.34 36 -35.68 36 -35 36 C-34.60241234 35.11492767 -34.60241234 35.11492767 -34.1967926 34.2119751 C-32.961827 31.92944665 -31.68306145 30.4354888 -29.85131836 28.60839844 C-29.21403305 27.9680365 -28.57674774 27.32767456 -27.92015076 26.66790771 C-27.23364944 25.98859192 -26.54714813 25.30927612 -25.83984375 24.609375 C-24.78223595 23.55245453 -24.78223595 23.55245453 -23.70326233 22.47418213 C-22.21526641 20.98920295 -20.72484513 19.50665063 -19.23217773 18.02636719 C-16.93739001 15.74989089 -14.65076006 13.46545876 -12.36523438 11.1796875 C-10.91974304 9.73910936 -9.47379527 8.29898904 -8.02734375 6.859375 C-7.33881821 6.17196228 -6.65029266 5.48454956 -5.94090271 4.77630615 C-5.30676956 4.14855286 -4.67263641 3.52079956 -4.01928711 2.87402344 C-3.1789518 2.03940582 -3.1789518 2.03940582 -2.32164001 1.18792725 C-1 0 -1 0 0 0 Z " fill="#0176BE" transform="translate(570,371)"/>
<path d="M0 0 C7.875 5.625 7.875 5.625 9 9 C8.01 8.67 7.02 8.34 6 8 C5.67 7.34 5.34 6.68 5 6 C4.01 5.67 3.02 5.34 2 5 C2.10454354 61.16378409 2.21430591 117.32755588 2.33111694 173.49131587 C2.34488735 180.11440907 2.35861432 186.73750236 2.37231445 193.3605957 C2.37504276 194.67919451 2.37777106 195.99779331 2.38058204 197.35634965 C2.42475504 218.73723889 2.46533019 240.11813348 2.50465261 261.49903213 C2.54504656 283.4201557 2.58919943 305.34126933 2.63687855 327.26237828 C2.66620512 340.80063913 2.69256167 354.3388992 2.71517897 367.87717295 C2.73094595 377.14724937 2.75034746 386.41731362 2.77266841 395.68737655 C2.78545792 401.04432973 2.79658631 406.40127347 2.80341911 411.75823784 C2.8096987 416.65390905 2.82049921 421.54954782 2.8350333 426.44520129 C2.8394928 428.22447701 2.84223354 430.00375796 2.84316199 431.78303903 C2.84465644 434.18529482 2.85217906 436.58745482 2.8613348 438.98969173 C2.86031213 439.69458106 2.85928946 440.39947039 2.85823581 441.12571999 C2.60635073 444.34177387 2.60635073 444.34177387 4 447 C9.87047879 447.63809552 14.13652541 446.02158094 19.546875 443.77734375 C22 443 22 443 25 444 C16.73172651 448.60912267 9.50165691 451 0 451 C0 302.17 0 153.34 0 0 Z " fill="#0E6FAA" transform="translate(297,100)"/>
<path d="M0 0 C4.90416833 3.96507227 9.06861843 8.16033912 13.14734268 12.96928596 C15.17176104 15.23595565 17.31496255 17.09961397 19.70687485 18.97149467 C26.77312672 24.73602329 31.67399507 29.8037539 32.68878794 39.14396119 C32.95667212 44.52670455 32.89609629 49.87595795 32.78222656 55.26220703 C32.78618749 57.68666426 32.79669396 60.1111182 32.8132019 62.53552246 C32.83609406 68.4045315 32.79017905 74.27055124 32.7117621 80.13885249 C32.62347828 86.98837487 32.61695372 93.83728225 32.61368415 100.68728445 C32.60526887 112.91706756 32.52650544 125.14535937 32.40625 137.37451172 C32.28993356 149.21187725 32.21911629 161.04829805 32.20117188 172.88623047 C32.20005804 173.61571428 32.1989442 174.34519809 32.19779661 175.09678747 C32.19558342 176.56660188 32.1933733 178.03641629 32.19116627 179.5062307 C32.18951952 180.59408709 32.18951952 180.59408709 32.18783951 181.70392036 C32.18675958 182.42745534 32.18567965 183.15099031 32.18456699 183.89645059 C32.16601445 195.22035744 32.10922479 206.54411433 32.04718752 217.86785499 C32.02510433 221.95580645 32.00787497 226.04374405 31.99407688 230.13173141 C31.96971745 237.22697683 31.91883557 244.32156861 31.83993912 251.41644287 C31.8174523 253.76526288 31.80316132 256.11417867 31.79790115 258.46310043 C31.73212814 282.46325084 31.73212814 282.46325084 26 292 C25.34 292.33 24.68 292.66 24 293 C24 291.35 24 289.7 24 288 C24.66 288 25.32 288 26 288 C27.59299276 281.70535871 28.29542938 275.46336939 28.6875 269 C28.75988892 267.86896851 28.75988892 267.86896851 28.83374023 266.71508789 C29.15016559 262.7333773 29.15016559 262.7333773 28 259 C27.90182587 256.12193064 27.86548043 253.26802135 27.87301636 250.3896637 C27.87145637 249.48760647 27.86989638 248.58554925 27.86828911 247.65615696 C27.86428125 244.6152374 27.86746796 241.57436724 27.87060547 238.53344727 C27.86925132 236.3607073 27.86747132 234.18796757 27.86529541 232.01522827 C27.86072238 226.10003896 27.86251018 220.18486703 27.8656745 214.2696774 C27.86819908 208.09042389 27.86586025 201.9111719 27.86428833 195.73191833 C27.86246679 185.35211926 27.8648724 174.97232729 27.86962891 164.5925293 C27.87507006 152.57968925 27.87330987 140.56686898 27.8678025 128.55402905 C27.86326923 118.25508719 27.86262192 107.95615044 27.86524117 97.65720791 C27.86680294 91.49958864 27.86700045 85.34197736 27.86370468 79.1843586 C27.86082292 73.39538272 27.86280732 67.60642879 27.86859894 61.81745529 C27.86992495 59.68852589 27.86953509 57.55959465 27.86733627 55.43066597 C27.86461855 52.53285874 27.86801364 49.6351226 27.87301636 46.73731995 C27.87078564 45.88752314 27.86855491 45.03772633 27.86625659 44.1621781 C27.87740084 40.85204128 27.94578486 38.16264541 29 35 C28.04906703 33.30485863 27.04892238 31.63631892 26 30 C26 29.34 26 28.68 26 28 C25.01 27.67 24.02 27.34 23 27 C23 26.34 23 25.68 23 25 C22.01 25 21.02 25 20 25 C18.9636823 23.35566931 17.97175097 21.68329374 17 20 C15.24338804 18.0340086 13.49066404 16.1655582 11.625 14.3125 C11.15578125 13.82716797 10.6865625 13.34183594 10.203125 12.84179688 C7.34443438 9.97915779 4.87088666 8.20349385 1 7 C0.67 4.69 0.34 2.38 0 0 Z " fill="#076AB2" transform="translate(216,155)"/>
<path d="M0 0 C9.03524229 6.77643172 9.03524229 6.77643172 13 11.3125 C13.763125 12.17488281 14.52625 13.03726563 15.3125 13.92578125 C17 16 17 16 17 17 C14.625 17.1875 14.625 17.1875 12 17 C11.34 16.01 10.68 15.02 10 14 C7.94074861 13.27617533 7.94074861 13.27617533 6 13 C5.01 14.32 4.02 15.64 3 17 C2.9729957 15.54176788 2.95360213 14.08339325 2.9375 12.625 C2.92589844 11.81289062 2.91429687 11.00078125 2.90234375 10.1640625 C3 8 3 8 4 6 C3.34 6 2.68 6 2 6 C2.33 113.25 2.66 220.5 3 331 C10.78295873 330.22170413 13.57635609 329.82640332 20 327 C22.1953125 327.4140625 22.1953125 327.4140625 24 328 C22.07049681 328.83131218 20.13077995 329.63892279 18.1875 330.4375 C17.10855469 330.88996094 16.02960938 331.34242188 14.91796875 331.80859375 C11 333 11 333 0 334 C0 223.78 0 113.56 0 0 Z " fill="#3082B6" transform="translate(199,138)"/>
<path d="M0 0 C4.15486075 1.84366432 6.17377908 4.44910705 9 8 C9.98290968 9.01680311 10.97334787 10.02738219 12 11 C8.75728494 10.4409112 7.06942576 9.5867822 5 7 C5 6.34 5 5.68 5 5 C4.01 5 3.02 5 2 5 C2.00037972 5.6063615 2.00075944 6.212723 2.00115067 6.83745909 C2.02353053 42.77829502 2.04068747 78.71912976 2.05106533 114.65997121 C2.05231603 118.97578811 2.05361035 123.291605 2.05493164 127.60742188 C2.05519395 128.46662045 2.05545626 129.32581902 2.05572652 130.21105391 C2.06007739 144.12161651 2.06796174 158.03217498 2.0771528 171.94273514 C2.08650553 186.21709015 2.09205905 200.491443 2.09408849 214.76580095 C2.09546035 223.57325747 2.09979272 232.38070231 2.10791647 241.18815523 C2.1132039 247.22840107 2.11479974 253.26864087 2.11350138 259.30888885 C2.11286113 262.79334643 2.11384015 266.2777836 2.11920547 269.76223755 C2.12417713 273.54296472 2.12298539 277.3236418 2.12025452 281.10437012 C2.12316736 282.20166049 2.1260802 283.29895087 2.12908131 284.42949247 C2.09993176 299.35010236 2.09993176 299.35010236 -1 304 C-1.66 304 -2.32 304 -3 304 C-2.51361526 302.39741711 -2.51361526 302.39741711 -2.01740456 300.7624588 C-0.62083992 295.13055057 -0.71162723 289.57467814 -0.7215271 283.80065918 C-0.7157347 282.58509228 -0.7099423 281.36952538 -0.70397437 280.11712313 C-0.68995442 276.76027061 -0.68474742 273.40361735 -0.68332577 270.04675007 C-0.67961995 266.42038423 -0.66445862 262.79406376 -0.65071106 259.16772461 C-0.62847143 252.89054341 -0.61343835 246.61337842 -0.60334396 240.33616638 C-0.58873882 231.26045386 -0.56319686 222.18479783 -0.53501268 213.10911852 C-0.48957802 198.38330754 -0.45294947 183.6574884 -0.421875 168.93164062 C-0.39167583 154.62954274 -0.35731927 140.32746478 -0.31738281 126.02539062 C-0.31492126 125.14334172 -0.31245972 124.26129282 -0.30992357 123.35251516 C-0.29754871 118.92739495 -0.28509222 114.50227498 -0.27259517 110.07715511 C-0.16907718 73.38479757 -0.07985751 36.69241628 0 0 Z " fill="#B8E1F3" transform="translate(345,216)"/>
<path d="M0 0 C0.33 0 0.66 0 1 0 C1 96.03 1 192.06 1 291 C0.34 291 -0.32 291 -1 291 C-1.81069663 281.37742889 -2.14449454 271.86500576 -2.12939453 262.20776367 C-2.13075389 260.78861954 -2.13253679 259.36947577 -2.13470459 257.95033264 C-2.13921004 254.14542176 -2.1375196 250.3405384 -2.1343255 246.53562713 C-2.13177237 242.54029634 -2.134147 238.54496773 -2.13571167 234.54963684 C-2.13752206 227.85820089 -2.135154 221.16677605 -2.13037109 214.4753418 C-2.12490165 206.73384922 -2.12671498 198.99238288 -2.1321975 191.25089091 C-2.13672649 184.58907476 -2.13738111 177.92726653 -2.13475883 171.26544935 C-2.13319859 167.29230494 -2.132996 163.3191729 -2.13629532 159.34602928 C-2.13917188 155.62360962 -2.13720241 151.90122415 -2.13140106 148.17880821 C-2.13007354 146.81015581 -2.13046745 145.44150056 -2.13266373 144.07284927 C-2.13537477 142.2128484 -2.13138082 140.35284128 -2.12698364 138.49284363 C-2.12660662 137.45004336 -2.12622959 136.4072431 -2.12584114 135.33284283 C-2 133 -2 133 -1 132 C-0.89159176 130.29212933 -0.85313602 128.5797852 -0.84178162 126.86851501 C-0.8319928 125.75647202 -0.82220398 124.64442902 -0.81211853 123.49868774 C-0.80636307 122.26798553 -0.8006076 121.03728333 -0.79467773 119.76928711 C-0.78477814 118.48166977 -0.77487854 117.19405243 -0.76467896 115.86741638 C-0.73756643 112.32628629 -0.71659137 108.78514277 -0.69667697 105.24396586 C-0.67485642 101.54702334 -0.64744856 97.85012247 -0.62062073 94.1532135 C-0.57064051 87.14799122 -0.52572153 80.14274589 -0.48259836 73.13747841 C-0.43327143 65.16418167 -0.3783365 57.1909267 -0.32291877 49.21767032 C-0.20901695 32.81181869 -0.10219587 16.40592881 0 0 Z " fill="#0A6EB0" transform="translate(344,218)"/>
<path d="M0 0 C5.82457956 5.63042691 5.82457956 5.63042691 6.24954766 8.94831204 C6.24933029 9.69370575 6.24911292 10.43909945 6.24888897 11.20708084 C6.25348777 12.0691358 6.25808656 12.93119076 6.26282471 13.8193686 C6.25768115 14.76691947 6.25253759 15.71447033 6.24723816 16.69073486 C6.24965257 17.69699661 6.25206699 18.70325836 6.25455457 19.74001288 C6.26021156 23.1278471 6.25151318 26.51549443 6.24291992 29.90332031 C6.24399233 32.32587231 6.24593041 34.74842405 6.24867249 37.17097473 C6.25302628 43.07850877 6.24806691 48.98599202 6.23882218 54.89351639 C6.22844243 61.77365961 6.22850829 68.65379071 6.22899476 75.53394029 C6.22949566 87.813166 6.22032786 100.09236571 6.20581055 112.37158203 C6.19173492 124.28337071 6.18463924 136.19513648 6.18530273 148.10693359 C6.18534269 148.83997551 6.18538265 149.57301742 6.18542381 150.32827273 C6.18548435 151.4259414 6.18548435 151.4259414 6.1855461 152.54578519 C6.18623658 166.10617686 6.18034059 179.66655881 6.17139288 193.22694732 C6.16837952 198.02069601 6.16731366 202.81444291 6.16686058 207.60819244 C6.16610585 214.06612724 6.15974728 220.52404274 6.14969444 226.98196983 C6.14677427 229.35271495 6.1455431 231.72346283 6.14612198 234.09420967 C6.14661306 237.3299422 6.14095297 240.56560742 6.13371277 243.80133057 C6.13526137 244.73995855 6.13680997 245.67858653 6.1384055 246.64565778 C6.11515735 252.9362526 5.70586879 258.90761147 4 265 C2.68 265.33 1.36 265.66 0 266 C0.21190867 265.40075909 0.42381734 264.80151818 0.64214748 264.18411845 C2.75234176 257.78988552 3.4345999 252.1354572 3.40113831 245.42951965 C3.41133331 243.90503024 3.41133331 243.90503024 3.42173427 242.34974307 C3.44061103 238.96979085 3.43827563 235.59020393 3.43579102 232.21020508 C3.44477407 229.7767643 3.45498357 227.34332779 3.46632385 224.90989685 C3.49002087 219.00265844 3.49948352 213.09550465 3.50116099 207.18822841 C3.50259032 202.38635919 3.50877366 197.58451942 3.51826286 192.78265953 C3.54464647 179.15347865 3.55852541 165.52436839 3.55627144 151.89516179 C3.55615157 151.16187998 3.5560317 150.42859817 3.5559082 149.6730957 C3.55578556 148.93891443 3.55566292 148.20473315 3.55553656 147.44830396 C3.55431579 135.53573842 3.58306847 123.6234567 3.6253233 111.7109733 C3.66841837 99.46465828 3.68913401 87.21848177 3.68654197 74.97208899 C3.6855467 68.102286 3.69376086 61.2327812 3.72607613 54.36304665 C3.75625125 47.90734711 3.75538221 41.45211504 3.73352623 34.99637794 C3.73038487 32.6272286 3.73750028 30.2580402 3.7556076 27.88895798 C3.77872523 24.65507035 3.76486832 21.42336913 3.74171448 18.18952942 C3.75714517 17.25178533 3.77257586 16.31404124 3.78847414 15.34788066 C3.69475705 9.42685736 2.46804946 6.41211459 -1.7135759 2.17302436 C-2.13809585 1.78592632 -2.56261581 1.39882828 -3 1 C-2.01 0.67 -1.02 0.34 0 0 Z " fill="#B5E0F4" transform="translate(243,178)"/>
<path d="M0 0 C7.875 5.625 7.875 5.625 9 9 C8.01 8.67 7.02 8.34 6 8 C5.67 7.34 5.34 6.68 5 6 C4.01 5.67 3.02 5.34 2 5 C1.67 151.85 1.34 298.7 1 450 C2.32 450.33 3.64 450.66 5 451 C3.35 451 1.7 451 0 451 C0 302.17 0 153.34 0 0 Z " fill="#34799F" transform="translate(297,100)"/>
<path d="M0 0 C1.32 0.99 2.64 1.98 4 3 C3.67 4.32 3.34 5.64 3 7 C2.01 6.01 1.02 5.02 0 4 C-0.33 152.5 -0.66 301 -1 454 C-1.33 454 -1.66 454 -2 454 C-2 304.51 -2 155.02 -2 1 C-1.34 0.67 -0.68 0.34 0 0 Z " fill="#E0FEFF" transform="translate(298,97)"/>
<path d="M0 0 C0.33 0 0.66 0 1 0 C1.98620598 12.85698911 2.21018367 25.67247514 2.31640625 38.5625 C2.33703019 40.6919795 2.35802785 42.82145541 2.37937927 44.95092773 C2.43403927 50.50078384 2.4836909 56.05067335 2.53222656 61.60058594 C2.58285649 67.28583681 2.63832385 72.97104038 2.69335938 78.65625 C2.80025289 89.77079273 2.90184461 100.8853769 3 112 C3.33 112 3.66 112 4 112 C4 136.09 4 160.18 4 185 C-1.66916011 176.49625984 -0.27314228 164.90930117 -0.22705078 155.07568359 C-0.22648579 153.37964891 -0.22680495 151.68361374 -0.22793579 149.98757935 C-0.22850686 145.40976165 -0.21679257 140.83204992 -0.20278788 136.25425673 C-0.19023933 131.46033237 -0.18910678 126.66640528 -0.18673706 121.87246704 C-0.18053438 112.80628915 -0.16414002 103.74015981 -0.14403808 94.67400324 C-0.12164128 84.34749338 -0.11067616 74.02098113 -0.10064721 63.694453 C-0.07977267 42.46294163 -0.04462035 21.23147388 0 0 Z " fill="#1078B6" transform="translate(618,256)"/>
<path d="M0 0 C0 109.56 0 219.12 0 332 C-12.43362832 332 -12.43362832 332 -18 329.6875 C-19.0725 329.25824219 -20.145 328.82898438 -21.25 328.38671875 C-23.72708962 327.13761816 -25.22944808 326.09638265 -27 324 C-23.43497782 324.92690577 -20.50658382 325.70547452 -17.3125 327.5625 C-12.75869906 329.74896695 -12.75869906 329.74896695 -2 330 C-1.505 168.63 -1.505 168.63 -1 4 C-1.99 3.67 -2.98 3.34 -4 3 C-1.125 0 -1.125 0 0 0 Z " fill="#206B9A" transform="translate(667,139)"/>
<path d="M0 0 C0.66 0 1.32 0 2 0 C2.00173625 0.68714807 2.0034725 1.37429613 2.00526136 2.08226687 C2.10826792 42.79951472 2.21637573 83.51674625 2.33111694 124.23396281 C2.34488668 129.12187679 2.35861375 134.0097909 2.37231445 138.89770508 C2.37640691 140.35736144 2.37640691 140.35736144 2.38058204 141.84650581 C2.42466862 157.60716183 2.4652983 173.36782497 2.50465261 189.12849344 C2.54510437 205.29788557 2.58926603 221.4672645 2.63687855 237.63663715 C2.66614574 247.61565217 2.69251201 257.59466622 2.71517897 267.57369845 C2.73099524 274.41475777 2.75041194 281.25580093 2.77266841 288.0968423 C2.78540651 292.04495312 2.79654898 295.9930516 2.80341911 299.94117737 C2.80974548 303.55667531 2.82059932 307.17213052 2.8350333 310.78760492 C2.84154836 312.71306012 2.84323658 314.63852979 2.84474558 316.56399542 C2.85663343 323.40947067 2.85663343 323.40947067 3.57238865 330.20503139 C4 333 4 333 3 334.9375 C-0.69744418 336.90176722 -4.30028378 336.51704654 -8.234375 335.3203125 C-10.17583066 334.59743007 -12.09067731 333.80392534 -14 333 C-10 332 -10 332 1 333 C0.67 223.11 0.34 113.22 0 0 Z " fill="#BFEDFE" transform="translate(666,138)"/>
<path d="M0 0 C4.90416833 3.96507227 9.06861843 8.16033912 13.14734268 12.96928596 C15.17176104 15.23595565 17.31496255 17.09961397 19.70687485 18.97149467 C26.77312672 24.73602329 31.67399507 29.8037539 32.68878794 39.14396119 C32.95667212 44.52670455 32.89609629 49.87595795 32.78222656 55.26220703 C32.78618749 57.68666426 32.79669396 60.1111182 32.8132019 62.53552246 C32.83609406 68.4045315 32.79017905 74.27055124 32.7117621 80.13885249 C32.62347828 86.98837487 32.61695372 93.83728225 32.61368415 100.68728445 C32.60526887 112.91706756 32.52650544 125.14535937 32.40625 137.37451172 C32.28993356 149.21187725 32.21911629 161.04829805 32.20117188 172.88623047 C32.20005804 173.61571428 32.1989442 174.34519809 32.19779661 175.09678747 C32.19558342 176.56660188 32.1933733 178.03641629 32.19116627 179.5062307 C32.18951952 180.59408709 32.18951952 180.59408709 32.18783951 181.70392036 C32.18675958 182.42745534 32.18567965 183.15099031 32.18456699 183.89645059 C32.16601445 195.22035744 32.10922479 206.54411433 32.04718752 217.86785499 C32.02510433 221.95580645 32.00787497 226.04374405 31.99407688 230.13173141 C31.96971745 237.22697683 31.91883557 244.32156861 31.83993912 251.41644287 C31.8174523 253.76526288 31.80316132 256.11417867 31.79790115 258.46310043 C31.73212814 282.46325084 31.73212814 282.46325084 26 292 C25.34 292.33 24.68 292.66 24 293 C24 291.35 24 289.7 24 288 C24.66 288 25.32 288 26 288 C26.31927064 286.54313397 26.62990834 285.08437649 26.9375 283.625 C27.11152344 282.81289063 27.28554687 282.00078125 27.46484375 281.1640625 C28.76831359 273.45741603 29.14817882 265.7900306 29.14044189 257.98551941 C29.14341302 257.02903529 29.14638414 256.07255117 29.1494453 255.08708268 C29.15805708 251.90985266 29.15963406 248.73266065 29.16113281 245.55541992 C29.16576595 243.26651938 29.17079128 240.9776196 29.17617798 238.6887207 C29.18924751 232.49289405 29.19573509 226.29707819 29.20018864 220.10123992 C29.20312536 216.22999601 29.20723107 212.35875502 29.21169281 208.48751259 C29.22378597 197.75816399 29.2341758 187.02881922 29.2375679 176.29946423 C29.23778747 175.61461982 29.23800703 174.92977542 29.23823325 174.22417815 C29.23845153 173.53777357 29.23866981 172.85136899 29.2388947 172.14416426 C29.23933816 170.75341745 29.23978472 169.36267064 29.24023438 167.97192383 C29.2404558 167.28207715 29.24067723 166.59223048 29.24090537 165.88147936 C29.24486075 154.68220591 29.26234466 143.48299722 29.2855939 132.28374883 C29.3092986 120.7719664 29.32151102 109.26022578 29.32293582 97.74841768 C29.32398507 91.29012288 29.32991982 84.83191981 29.34775543 78.37364769 C29.36418624 72.30709644 29.36641595 66.24070644 29.35761642 60.17414093 C29.35684364 57.94606152 29.36122035 55.7179736 29.37107468 53.48991585 C29.38372161 50.4529373 29.37795705 47.41653635 29.36749268 44.37956238 C29.37554908 43.49435683 29.38360548 42.60915128 29.39190602 41.69712132 C29.35297873 36.88030468 28.91395746 34.02219562 26 30 C26 29.34 26 28.68 26 28 C25.01 27.67 24.02 27.34 23 27 C23 26.34 23 25.68 23 25 C22.01 25 21.02 25 20 25 C18.9636823 23.35566931 17.97175097 21.68329374 17 20 C15.24338804 18.0340086 13.49066404 16.1655582 11.625 14.3125 C11.15578125 13.82716797 10.6865625 13.34183594 10.203125 12.84179688 C7.34443438 9.97915779 4.87088666 8.20349385 1 7 C0.67 4.69 0.34 2.38 0 0 Z " fill="#136FA8" transform="translate(216,155)"/>
<path d="M0 0 C0 59.4 0 118.8 0 180 C-11.31460674 180 -11.31460674 180 -15.9375 178.1875 C-16.83339844 177.85105469 -17.72929688 177.51460937 -18.65234375 177.16796875 C-20.94605353 176.02683859 -22.33260964 174.92052553 -24 173 C-22.68 173 -21.36 173 -20 173 C-20 173.66 -20 174.32 -20 175 C-13.61807624 177.03061211 -7.80092191 177.86651301 -1 179 C-1 121.25 -1 63.5 -1 4 C-2.32 4.99 -3.64 5.98 -5 7 C-5.66 6.67 -6.32 6.34 -7 6 C-6.02388578 4.99702025 -5.04402202 3.99768827 -4.0625 3 C-3.24458984 2.1646875 -3.24458984 2.1646875 -2.41015625 1.3125 C-1 0 -1 0 0 0 Z " fill="#1B79A9" transform="translate(570,371)"/>
<path d="M0 0 C0.5859375 1.87890625 0.5859375 1.87890625 1 4 C0.03542166 5.35917857 -0.96854629 6.69084721 -2 8 C-2.34820041 9.66362417 -2.68404492 11.32995171 -3 13 C-3.99 13.495 -3.99 13.495 -5 14 C-5.33 40.73 -5.66 67.46 -6 95 C-4.515 94.505 -4.515 94.505 -3 94 C-3.01160156 94.81984375 -3.02320313 95.6396875 -3.03515625 96.484375 C-3.04417969 97.56203125 -3.05320312 98.6396875 -3.0625 99.75 C-3.07410156 100.81734375 -3.08570313 101.8846875 -3.09765625 102.984375 C-3.01454043 105.55099163 -2.89084647 107.60199817 -2 110 C-1.34 110.33 -0.68 110.66 0 111 C0.2475 111.86625 0.495 112.7325 0.75 113.625 C3.08123039 119.91932205 8.25219473 124.39183606 13 129 C13.66 128.67 14.32 128.34 15 128 C15 129.32 15 130.64 15 132 C6.54877975 129.2373867 1.47408295 121.43433443 -2.4375 113.8125 C-6.01789356 106.35589689 -7.30072802 99.96957941 -7.33813477 91.79516602 C-7.34967087 90.89991211 -7.36120697 90.0046582 -7.37309265 89.08227539 C-7.40722578 86.13946736 -7.42586232 83.19686808 -7.44140625 80.25390625 C-7.44830915 79.24428267 -7.45521206 78.23465908 -7.46232414 77.19444084 C-7.49807723 71.85545585 -7.52166276 66.51657547 -7.53540039 61.17749023 C-7.55197383 55.67490639 -7.61046015 50.17360177 -7.67854404 44.67144871 C-7.72337491 40.42739416 -7.73689794 36.18364594 -7.74201775 31.93937492 C-7.74989625 29.91120399 -7.76949553 27.88304222 -7.80124092 25.85510445 C-8.0621531 8.01749109 -8.0621531 8.01749109 -3.45288086 2.69506836 C-1.50474548 1.01597595 -1.50474548 1.01597595 0 0 Z " fill="#1371AE" transform="translate(529,411)"/>
<path d="M0 0 C0.99 0.33 1.98 0.66 3 1 C3 60.73 3 120.46 3 182 C2.67 182 2.34 182 2 182 C1.67 122.93 1.34 63.86 1 3 C0.01 3.495 0.01 3.495 -1 4 C-0.67 2.68 -0.34 1.36 0 0 Z " fill="#D5F5FE" transform="translate(568,369)"/>
<path d="M0 0 C0.33 0 0.66 0 1 0 C1.00423194 0.84630163 1.00846388 1.69260326 1.01282406 2.5645504 C1.11624135 23.18073589 1.22489542 43.79688802 1.33933926 64.41301537 C1.3945584 74.38291662 1.44802145 84.35282145 1.49731445 94.32275391 C1.54029521 103.01507215 1.58660752 111.70736525 1.63687855 120.39964449 C1.66336799 124.99981353 1.68821751 129.59997793 1.70907402 134.20017624 C1.7287827 138.5355754 1.7529671 142.8709272 1.78049088 147.20628357 C1.78978651 148.79205584 1.797488 150.37783844 1.80341911 151.96362686 C1.83446876 160.02135395 1.94992331 167.99843145 3 176 C1.52254772 174.93303204 1.52254772 174.93303204 0 173 C-0.36914349 169.9290514 -0.36914349 169.9290514 -0.36076355 166.07148743 C-0.36332682 165.36246959 -0.3658901 164.65345176 -0.36853105 163.92294854 C-0.37348226 161.54125764 -0.35695458 159.16019719 -0.34057617 156.77856445 C-0.33973019 155.07371028 -0.34020448 153.368855 -0.34190369 151.66400146 C-0.34276618 147.02993409 -0.32509939 142.39609858 -0.30418181 137.7620852 C-0.28545728 132.92141402 -0.28366791 128.08073782 -0.28010559 123.24003601 C-0.27077269 114.07089059 -0.24614208 104.90185218 -0.21605712 95.73275393 C-0.18255182 85.2951713 -0.16603685 74.85758362 -0.15097082 64.41996062 C-0.1195936 42.94658063 -0.06680893 21.47329705 0 0 Z " fill="#DAFEFE" transform="translate(617,262)"/>
<path d="M0 0 C0 3.25811062 -0.5522078 5.10441559 -2 8 C-2.99 8.33 -3.98 8.66 -5 9 C-6.21869929 11.50447516 -6.21869929 11.50447516 -7 14 C-7.99 14 -8.98 14 -10 14 C-10.66 15.98 -11.32 17.96 -12 20 C-12.33 19.34 -12.66 18.68 -13 18 C-13.66 18 -14.32 18 -15 18 C-15.226875 18.721875 -15.45375 19.44375 -15.6875 20.1875 C-17.26335128 23.56432417 -19.20876616 25.55767039 -22 28 C-22.66 28 -23.32 28 -24 28 C-24.33 28.99 -24.66 29.98 -25 31 C-26.98 31.33 -28.96 31.66 -31 32 C-25.19316781 24.88094773 -18.63714556 18.52625188 -12.125 12.0625 C-10.94768362 10.89020796 -9.77059826 9.71768386 -8.59375 8.54492188 C-5.73182511 5.69393018 -2.86678543 2.84610385 0 0 Z " fill="#1F7AB4" transform="translate(473,330)"/>
<path d="M0 0 C-13.53 13.53 -27.06 27.06 -41 41 C-41.33 39.68 -41.66 38.36 -42 37 C-40.7934375 36.071875 -40.7934375 36.071875 -39.5625 35.125 C-36.96125481 33.25835959 -36.96125481 33.25835959 -36 31 C-35.01 31 -34.02 31 -33 31 C-33 30.34 -33 29.68 -33 29 C-32.34 29 -31.68 29 -31 29 C-31.33 27.68 -31.66 26.36 -32 25 C-31.01 24.67 -30.02 24.34 -29 24 C-28.34 24.33 -27.68 24.66 -27 25 C-27 24.34 -27 23.68 -27 23 C-26.34 23 -25.68 23 -25 23 C-24.731875 22.401875 -24.46375 21.80375 -24.1875 21.1875 C-23.00082594 19.00152146 -21.90400887 17.58667406 -20 16 C-19.34 16 -18.68 16 -18 16 C-18 15.34 -18 14.68 -18 14 C-17.34 14 -16.68 14 -16 14 C-16.33 12.68 -16.66 11.36 -17 10 C-16.44570313 9.78085937 -15.89140625 9.56171875 -15.3203125 9.3359375 C-10.37093774 7.29592106 -10.37093774 7.29592106 -7.75 2.8125 C-7.5025 1.884375 -7.255 0.95625 -7 0 C-4.09299153 -1.406617 -3.12277995 -1.04092665 0 0 Z " fill="#166EA7" transform="translate(497,376)"/>
<path d="M0 0 C0.391875 0.433125 0.78375 0.86625 1.1875 1.3125 C2.94087905 3.08576367 2.94087905 3.08576367 5.1875 4.1875 C9.36401093 6.87902927 12.55974628 10.44111684 16 14 C16.928125 14.9075 17.85625 15.815 18.8125 16.75 C20.74646361 18.73921971 22.40570655 20.73442509 24 23 C23.278125 22.814375 22.55625 22.62875 21.8125 22.4375 C18.87173027 21.98004693 16.85896942 22.26483643 14 23 C14.33 20.69 14.66 18.38 15 16 C14.01 15.34 13.02 14.68 12 14 C11.34 16.31 10.68 18.62 10 21 C9.01 21 8.02 21 7 21 C7 19.68 7 18.36 7 17 C6.34 17 5.68 17 5 17 C4.3125 15.25 4.3125 15.25 4 13 C5.4375 10.75 5.4375 10.75 7 9 C6.34 8.01 5.68 7.02 5 6 C3.68 6 2.36 6 1 6 C0.67 4.02 0.34 2.04 0 0 Z " fill="#066FB5" transform="translate(301,105)"/>
<path d="M0 0 C0.33 1.32 0.66 2.64 1 4 C-2.75 7 -2.75 7 -5 7 C-5 7.99 -5 8.98 -5 10 C-5.66 10 -6.32 10 -7 10 C-7.10828125 10.58652344 -7.2165625 11.17304688 -7.328125 11.77734375 C-9.08587673 17.59223175 -14.02992267 21.0179536 -19 24 C-19.87822312 26.08533633 -19.87822312 26.08533633 -20 28 C-20.5775 28.12375 -21.155 28.2475 -21.75 28.375 C-24.02335767 29.00648824 -25.9253529 29.88858191 -28 31 C-26.5571195 26.17609951 -23.63757377 23.24698759 -20.1171875 19.82421875 C-19.54292023 19.25419632 -18.96865295 18.68417389 -18.37698364 18.09687805 C-16.54993747 16.28655943 -14.71271582 14.48698017 -12.875 12.6875 C-11.63082315 11.45837759 -10.38732562 10.22856713 -9.14453125 8.99804688 C-6.10416507 5.99067134 -3.0546325 2.99288117 0 0 Z " fill="#1573AE" transform="translate(562,378)"/>
<path d="M0 0 C1.98 0 3.96 0 6 0 C6.268125 0.94875 6.53625 1.8975 6.8125 2.875 C7.74986588 6.25267273 7.74986588 6.25267273 11 8 C13.67197035 8.42114198 13.67197035 8.42114198 16.5625 8.5625 C21.80763359 8.90381679 21.80763359 8.90381679 24 10 C24 9.34 24 8.68 24 8 C24.99 7.34 25.98 6.68 27 6 C27.99 6.33 28.98 6.66 30 7 C26.37 10.63 22.74 14.26 19 18 C15.44547056 16.22273528 14.48929427 15.69065176 12.25 12.8125 C9.35890783 9.27812133 6.14068074 6.39709997 2.63671875 3.48046875 C1 2 1 2 0 0 Z " fill="#F1FBFC" transform="translate(414,353)"/>
<path d="M0 0 C0.16253012 8.74498401 0.28673831 17.48944452 0.3626852 26.23561192 C0.39914545 30.2973489 0.44855834 34.35804913 0.52807617 38.41918945 C0.60440173 42.34205675 0.64604448 46.26393007 0.6641407 50.18748283 C0.67702803 51.68066996 0.70219589 53.17380552 0.7401104 54.66656685 C1.02506644 66.35573676 1.02506644 66.35573676 -1.5697937 70.51803589 C-3.29451564 72.28243131 -4.89966946 73.71186836 -7 75 C-7.33 75 -7.66 75 -8 75 C-8 73.35 -8 71.7 -8 70 C-7.01 70 -6.02 70 -5 70 C-5 69.34 -5 68.68 -5 68 C-4.01 68 -3.02 68 -2 68 C-1.67 48.53 -1.34 29.06 -1 9 C-1.66 9 -2.32 9 -3 9 C-3.66 7.35 -4.32 5.7 -5 4 C-1.125 0 -1.125 0 0 0 Z " fill="#1B7CAD" transform="translate(570,99)"/>
<path d="M0 0 C1.66926835 1.43080145 3.33795319 2.86221119 5.00390625 4.296875 C6.25135089 5.3612309 7.5078292 6.41519223 8.77734375 7.453125 C13.35663611 11.23285838 17.19754978 15.44630581 21 20 C23.55029595 18.81802568 25.07141391 17.92642203 27.0625 15.875 C29 14 29 14 32 14 C31.75 15.875 31.75 15.875 31 18 C29.6846659 18.70151152 28.34882408 19.36525925 27 20 C26.525625 20.680625 26.05125 21.36125 25.5625 22.0625 C23.56041983 24.54507941 22.09771991 24.66511136 19 25 C18.67 24.01 18.34 23.02 18 22 C17.34 21.67 16.68 21.34 16 21 C15.67 21.66 15.34 22.32 15 23 C15.04125 22.0925 15.0825 21.185 15.125 20.25 C15.00241438 17.06277389 14.8285231 15.55993233 13 13 C11.13355094 11.81669817 11.13355094 11.81669817 9 11 C7.66666667 10.33333333 6.33333333 9.66666667 5 9 C5 8.01 5 7.02 5 6 C4.38125 5.9175 3.7625 5.835 3.125 5.75 C1 5 1 5 -0.25 2.9375 C-0.62125 1.9784375 -0.62125 1.9784375 -1 1 C-0.67 0.67 -0.34 0.34 0 0 Z " fill="#1771AB" transform="translate(410,350)"/>
<path d="M0 0 C1.0828125 1.11375 1.0828125 1.11375 2.1875 2.25 C4.68592573 4.69290515 7.23643202 6.8681047 10 9 C9.9375 10.8125 9.9375 10.8125 9 13 C5.4375 14.75 5.4375 14.75 2 16 C2 15.34 2 14.68 2 14 C1.01 13.67 0.02 13.34 -1 13 C-0.67 12.01 -0.34 11.02 0 10 C-0.99 10 -1.98 10 -3 10 C-2.74438677 7.6568787 -2.40729228 5.32156597 -2 3 C-1.34 2.67 -0.68 2.34 0 2 C0 1.34 0 0.68 0 0 Z " fill="#097ABD" transform="translate(422,224)"/>
<path d="M0 0 C0 3.20395416 -0.74335022 5.09399739 -2 8 C-1.01 8.33 -0.02 8.66 1 9 C-2.06117568 11.62386487 -2.73173127 12 -7 12 C-8.59264657 13.18407908 -8.59264657 13.18407908 -9.9375 14.8125 C-12.41279621 17.47531865 -14.82336597 19.19704555 -18 21 C-19.75149165 22.58245275 -19.75149165 22.58245275 -21 24 C-21.66 23.67 -22.32 23.34 -23 23 C-15.41 15.41 -7.82 7.82 0 0 Z " fill="#1374B1" transform="translate(508,160)"/>
<path d="M0 0 C0.33 0 0.66 0 1 0 C1 12.87 1 25.74 1 39 C-11.43362832 39 -11.43362832 39 -17 36.6875 C-18.0725 36.25824219 -19.145 35.82898438 -20.25 35.38671875 C-22.72708962 34.13761816 -24.22944808 33.09638265 -26 31 C-22.43497782 31.92690577 -19.50658382 32.70547452 -16.3125 34.5625 C-11.75869906 36.74896695 -11.75869906 36.74896695 -1 37 C-0.67 24.79 -0.34 12.58 0 0 Z " fill="#1F6D9C" transform="translate(666,432)"/>
<path d="M0 0 C2.97 0.495 2.97 0.495 6 1 C3.01665146 6.01202555 -0.43951988 9.38748484 -5 13 C-7.03125 9.265625 -7.03125 9.265625 -6.75 6.875 C-6 5 -6 5 -4 3 C-3.01 3 -2.02 3 -1 3 C-0.67 2.01 -0.34 1.02 0 0 Z " fill="#0E73B1" transform="translate(234,448)"/>
<path d="M0 0 C0.33 1.32 0.66 2.64 1 4 C-0.75 6.75 -0.75 6.75 -3 9 C-3.99 9 -4.98 9 -6 9 C-6.2475 9.639375 -6.495 10.27875 -6.75 10.9375 C-8 13 -8 13 -10.125 13.75 C-11.053125 13.87375 -11.053125 13.87375 -12 14 C-11.505 14.78375 -11.01 15.5675 -10.5 16.375 C-9 19 -9 19 -9 21 C-10.32 20.34 -11.64 19.68 -13 19 C-13 18.34 -13 17.68 -13 17 C-14.32 17.99 -15.64 18.98 -17 20 C-17.66 19.67 -18.32 19.34 -19 19 C-12.73 12.73 -6.46 6.46 0 0 Z " fill="#2783B7" transform="translate(617,187)"/>
<path d="M0 0 C0 20.13 0 40.26 0 61 C-0.33 61 -0.66 61 -1 61 C-1 42.19 -1 23.38 -1 4 C-2.32 4.99 -3.64 5.98 -5 7 C-5.66 6.67 -6.32 6.34 -7 6 C-6.02388578 4.99702025 -5.04402202 3.99768827 -4.0625 3 C-3.51722656 2.443125 -2.97195313 1.88625 -2.41015625 1.3125 C-1 0 -1 0 0 0 Z " fill="#1870A2" transform="translate(570,371)"/>
<path d="M0 0 C1.32 0.33 2.64 0.66 4 1 C2.77083333 2.22916667 1.54166667 3.45833333 0.3125 4.6875 C-0.42355469 5.42484375 -1.15960937 6.1621875 -1.91796875 6.921875 C-3.43570829 8.436767 -4.96461269 9.94049737 -6.5 11.4375 C-10.13926484 15.16774646 -13.56221038 19.08450264 -17 23 C-17.93423645 19.98968256 -18.04449911 19.13349732 -17 16 C-16.01 16 -15.02 16 -14 16 C-14 15.34 -14 14.68 -14 14 C-12.64731864 12.88308009 -11.24090443 11.83079157 -9.8125 10.8125 C-5.54155469 7.60592276 -2.84422665 4.49571308 0 0 Z " fill="#E3FAFD" transform="translate(540,396)"/>
<path d="M0 0 C0.33 0.66 0.66 1.32 1 2 C-0.12589193 5.3776758 -1.31943052 6.71363192 -4 9 C-4.99 9 -5.98 9 -7 9 C-7.14115234 9.91265625 -7.14115234 9.91265625 -7.28515625 10.84375 C-8.16847786 13.50819551 -9.08184788 14.05036793 -11.4375 15.5 C-14.3815701 17.44678875 -15.50353926 18.79329841 -17 22 C-19.5 23.8125 -19.5 23.8125 -22 25 C-22.66 24.67 -23.32 24.34 -24 24 C-16.08 16.08 -8.16 8.16 0 0 Z " fill="#D3F3FE" transform="translate(609,264)"/>
<path d="M0 0 C0.33 0 0.66 0 1 0 C1 18.48 1 36.96 1 56 C1.66 56 2.32 56 3 56 C3 56.99 3 57.98 3 59 C3.66 59 4.32 59 5 59 C4.67 59.99 4.34 60.98 4 62 C1.42044441 59.85581379 0.1210271 58.67503972 -0.48101807 55.31707764 C-0.47213562 54.29559631 -0.46325317 53.27411499 -0.45410156 52.22167969 C-0.45364838 50.48032745 -0.45364838 50.48032745 -0.45318604 48.70379639 C-0.43254089 47.45576233 -0.41189575 46.20772827 -0.390625 44.921875 C-0.38496521 43.64016418 -0.37930542 42.35845337 -0.37347412 41.03790283 C-0.35823468 37.63786372 -0.31896916 34.23851306 -0.2746582 30.83874512 C-0.23366799 27.36654981 -0.21545521 23.89424276 -0.1953125 20.421875 C-0.152472 13.61430134 -0.08424212 6.80718376 0 0 Z " fill="#0E6CAA" transform="translate(394,344)"/>
<path d="M0 0 C0.99 0 1.98 0 3 0 C1.43717018 3.76603869 -0.9063475 6.13639151 -3.7890625 8.984375 C-4.25234955 9.44483215 -4.7156366 9.90528931 -5.19296265 10.37969971 C-6.66565898 11.84125078 -8.14517403 13.29567168 -9.625 14.75 C-10.62806322 15.74302611 -11.63067257 16.73651089 -12.6328125 17.73046875 C-15.08330835 20.15897941 -17.5399667 22.58114675 -20 25 C-20.33 24.01 -20.66 23.02 -21 22 C-20.34 22 -19.68 22 -19 22 C-18.67 21.01 -18.34 20.02 -18 19 C-17.34 19 -16.68 19 -16 19 C-16 18.01 -16 17.02 -16 16 C-15.01 16 -14.02 16 -13 16 C-12.67 14.68 -12.34 13.36 -12 12 C-11.34 12 -10.68 12 -10 12 C-10 11.34 -10 10.68 -10 10 C-9.01 10 -8.02 10 -7 10 C-7 9.01 -7 8.02 -7 7 C-6.360625 6.896875 -5.72125 6.79375 -5.0625 6.6875 C-4.0415625 6.3471875 -4.0415625 6.3471875 -3 6 C-2.67 5.01 -2.34 4.02 -2 3 C-1.34 3 -0.68 3 0 3 C0 2.01 0 1.02 0 0 Z " fill="#C8E9F6" transform="translate(515,285)"/>
<path d="M0 0 C0 3.38052219 -0.43365089 3.88869475 -2.4375 6.4375 C-3.97962771 8.40140623 -4.92489549 9.67111493 -5.484375 12.12109375 C-6 14 -6 14 -8.8125 15.625 C-10.3903125 16.305625 -10.3903125 16.305625 -12 17 C-12.70125 17.350625 -13.4025 17.70125 -14.125 18.0625 C-16.08333333 19.04166667 -18.04166667 20.02083333 -20 21 C-15.76183463 15.93376232 -11.32591037 11.19961931 -6.625 6.5625 C-5.98433594 5.92634766 -5.34367188 5.29019531 -4.68359375 4.63476562 C-3.12469121 3.08749668 -1.56348584 1.54263508 0 0 Z " fill="#167AB4" transform="translate(586,218)"/>
<path d="M0 0 C0 3 0 3 -2.58984375 5.8125 C-3.69849074 6.88255064 -4.81473155 7.94477608 -5.9375 9 C-10.29786329 12.91155775 -10.29786329 12.91155775 -13 18 C-13.78375 18.45375 -14.5675 18.9075 -15.375 19.375 C-18.17697283 20.81124248 -18.17697283 20.81124248 -19.4375 23.625 C-21 26 -21 26 -24.1875 26.8125 C-25.115625 26.874375 -26.04375 26.93625 -27 27 C-26.34 26.67 -25.68 26.34 -25 26 C-24.7525 25.43539062 -24.505 24.87078125 -24.25 24.2890625 C-22.45842305 21.0082372 -19.7634308 18.82277945 -17 16.375 C-11.14404956 11.08850325 -5.5235033 5.63571894 0 0 Z " fill="#1674A9" transform="translate(657,148)"/>
<path d="M0 0 C0.33 0.99 0.66 1.98 1 3 C0.38125 3.20625 -0.2375 3.4125 -0.875 3.625 C-3.31985677 4.89068641 -3.31985677 4.89068641 -4 8.0625 C-4.495 9.5165625 -4.495 9.5165625 -5 11 C-7.125 11.875 -7.125 11.875 -9 12 C-8.67 11.01 -8.34 10.02 -8 9 C-8.99 9.33 -9.98 9.66 -11 10 C-11 10.66 -11 11.32 -11 12 C-11.66 12 -12.32 12 -13 12 C-13 12.66 -13 13.32 -13 14 C-14.32 13.67 -15.64 13.34 -17 13 C-15.44395612 11.38957012 -13.87987244 9.78690632 -12.3125 8.1875 C-11.44238281 7.29417969 -10.57226562 6.40085938 -9.67578125 5.48046875 C-3.76377953 0 -3.76377953 0 0 0 Z " fill="#037AC4" transform="translate(604,204)"/>
<path d="M0 0 C2.86724686 0.57344937 3.8614515 0.8614515 6 3 C6.12375 4.1446875 6.12375 4.1446875 6.25 5.3125 C6.81770179 8.32919436 6.81770179 8.32919436 10 10.5 C13 13 13 13 13.875 15.8125 C13.936875 16.8953125 13.936875 16.8953125 14 18 C8.12580856 13.07380487 2.70244434 8.09576118 -2 2 C-1.34 2 -0.68 2 0 2 C0 1.34 0 0.68 0 0 Z " fill="#D4EEF8" transform="translate(314,112)"/>
<path d="M0 0 C0.144375 0.598125 0.28875 1.19625 0.4375 1.8125 C0.8872439 3.56150404 1.42892341 5.28677023 2 7 C0.35 6.67 -1.3 6.34 -3 6 C-3.66 8.31 -4.32 10.62 -5 13 C-6.98 13.33 -8.96 13.66 -11 14 C-11.33 14.99 -11.66 15.98 -12 17 C-12.99 16.67 -13.98 16.34 -15 16 C-10.30233025 10.33870569 -5.25276628 5.14771096 0 0 Z " fill="#1079B6" transform="translate(564,104)"/>
<path d="M0 0 C3.15140423 0.34069235 4.60781561 0.58076841 6.8125 2.9375 C8 5 8 5 8 7 C8.59683594 7.09410156 9.19367188 7.18820313 9.80859375 7.28515625 C12.49238421 8.16061731 13.34269679 9.23156574 15.0625 11.4375 C17.01068086 13.91277489 18.30632886 15.20421924 21 17 C20.67 18.32 20.34 19.64 20 21 C19.64808594 20.56429687 19.29617188 20.12859375 18.93359375 19.6796875 C15.76920704 15.8625944 12.48501072 12.57370911 8.671875 9.41015625 C5.29705746 6.56363958 2.44733294 3.67099941 0 0 Z " fill="#D6EEF8" transform="translate(345,147)"/>
<path d="M0 0 C0.28875 0.639375 0.5775 1.27875 0.875 1.9375 C1.82823451 4.15206079 1.82823451 4.15206079 4 5 C4.2475 5.86625 4.495 6.7325 4.75 7.625 C7.08123039 13.91932205 12.25219473 18.39183606 17 23 C17.66 22.67 18.32 22.34 19 22 C19 23.32 19 24.64 19 26 C10.41693442 23.19428788 5.36094763 15.21174016 1.375 7.5 C-0.1015625 4.46875 -0.1015625 4.46875 -1 2 C-0.67 1.34 -0.34 0.68 0 0 Z " fill="#1D7BAD" transform="translate(525,517)"/>
<path d="M0 0 C0.95157435 3.43583715 1.09604275 5.5432498 0 9 C-2.35818407 12.33398438 -5.07072892 15.16522154 -8 18 C-8.7425 18.8971875 -8.7425 18.8971875 -9.5 19.8125 C-9.995 20.204375 -10.49 20.59625 -11 21 C-13.09375 20.57421875 -13.09375 20.57421875 -15 20 C-14.33613281 19.39414062 -13.67226563 18.78828125 -12.98828125 18.1640625 C-7.11882528 12.59450574 -3.03935201 7.51839707 0 0 Z " fill="#D8F2FA" transform="translate(341,521)"/>
<path d="M0 0 C0.33 0.66 0.66 1.32 1 2 C0.26418258 3.1549921 -0.48930039 4.29874185 -1.25 5.4375 C-1.66765625 6.07558594 -2.0853125 6.71367187 -2.515625 7.37109375 C-4.29504152 9.32376925 -5.49919115 9.38513171 -8 10 C-8.33 10.99 -8.66 11.98 -9 13 C-10.98 13.33 -12.96 13.66 -15 14 C-4.95087549 2.01702335 -4.95087549 2.01702335 0 0 Z " fill="#1270B0" transform="translate(457,348)"/>
<path d="M0 0 C0 3 0 3 -2 6 C-2 6.66 -2 7.32 -2 8 C-1.01 7.67 -0.02 7.34 1 7 C1 8.65 1 10.3 1 12 C-0.32 12.33 -1.64 12.66 -3 13 C-3 11.68 -3 10.36 -3 9 C-7.06815373 10.84916079 -10.0094833 12.66442368 -13 16 C-13.66 15.67 -14.32 15.34 -15 15 C-10.05 10.05 -5.1 5.1 0 0 Z " fill="#1570AB" transform="translate(460,208)"/>
<path d="M0 0 C0 3 0 3 -2 6 C-1.01 6 -0.02 6 1 6 C1 6.99 1 7.98 1 9 C0.01 9.33 -0.98 9.66 -2 10 C-3.20882096 12.00016466 -3.20882096 12.00016466 -4 14 C-4.33 12.68 -4.66 11.36 -5 10 C-8.057952 11.73559438 -10.63379989 13.38472619 -13 16 C-13.66 15.67 -14.32 15.34 -15 15 C-10.05 10.05 -5.1 5.1 0 0 Z " fill="#1672AF" transform="translate(476,192)"/>
<path d="M0 0 C1.32 0.99 2.64 1.98 4 3 C3.67 4.32 3.34 5.64 3 7 C2.01 6.01 1.02 5.02 0 4 C-0.33 15.55 -0.66 27.1 -1 39 C-1.33 39 -1.66 39 -2 39 C-2 26.46 -2 13.92 -2 1 C-1.34 0.67 -0.68 0.34 0 0 Z " fill="#DFFEFF" transform="translate(298,97)"/>
<path d="M0 0 C0 4.97160897 -4.05363445 8.02873009 -7.375 11.4375 C-8.24125 12.283125 -9.1075 13.12875 -10 14 C-10.85658203 14.90685547 -10.85658203 14.90685547 -11.73046875 15.83203125 C-12.33503906 16.46496094 -12.93960938 17.09789062 -13.5625 17.75 C-14.12066406 18.34296875 -14.67882812 18.9359375 -15.25390625 19.546875 C-17.19346808 21.16100699 -18.57050013 21.47426188 -21 22 C-16.61557474 16.74825074 -11.99157907 11.86777527 -7.125 7.0625 C-6.43664062 6.37865234 -5.74828125 5.69480469 -5.0390625 4.99023438 C-3.36166489 3.32448536 -1.68196209 1.6611378 0 0 Z " fill="#DDF5FE" transform="translate(538,198)"/>
<path d="M0 0 C0.33 1.32 0.66 2.64 1 4 C1.99 4 2.98 4 4 4 C5.421875 5.42578125 5.421875 5.42578125 6.75 7.3125 C7.19859375 7.92738281 7.6471875 8.54226563 8.109375 9.17578125 C9 11 9 11 8 14 C6.35 13.67 4.7 13.34 3 13 C3 12.01 3 11.02 3 10 C0.56249975 7.31232422 0.56249975 7.31232422 -2 5 C-1.34 3.35 -0.68 1.7 0 0 Z " fill="#067FC5" transform="translate(630,446)"/>
<path d="M0 0 C1.46184058 0.22860058 2.91955419 0.48370392 4.375 0.75 C5.59316406 0.95882813 5.59316406 0.95882813 6.8359375 1.171875 C9 2 9 2 10.3515625 3.953125 C11 6 11 6 10 8 C11.32 8.33 12.64 8.66 14 9 C14 9.66 14 10.32 14 11 C13.01 11.33 12.02 11.66 11 12 C9.16364422 10.19047409 7.33083792 8.37759362 5.5 6.5625 C4.97535156 6.04623047 4.45070313 5.52996094 3.91015625 4.99804688 C2.58775448 3.68423213 1.29164432 2.34406495 0 1 C0 0.67 0 0.34 0 0 Z " fill="#117BBB" transform="translate(406,276)"/>
<path d="M0 0 C0.66 0.66 1.32 1.32 2 2 C0.42617053 3.65492374 -1.15942902 5.29866024 -2.75 6.9375 C-3.63171875 7.85402344 -4.5134375 8.77054688 -5.421875 9.71484375 C-7.80176695 11.82429343 -8.9099375 12.66067071 -12 13 C-11.67 11.68 -11.34 10.36 -11 9 C-9.68 8.67 -8.36 8.34 -7 8 C-7.33 7.01 -7.66 6.02 -8 5 C-4.93882432 2.37613513 -4.26826873 2 0 2 C0 1.34 0 0.68 0 0 Z " fill="#1671AC" transform="translate(334,530)"/>
<path d="M0 0 C-1.55851755 0.82011312 -3.12201716 1.63076213 -4.6875 2.4375 C-5.55761719 2.88996094 -6.42773438 3.34242188 -7.32421875 3.80859375 C-11.50549112 5.67032816 -15.26811702 6.13032661 -19.8125 6.0625 C-20.60269531 6.05347656 -21.39289063 6.04445313 -22.20703125 6.03515625 C-22.79871094 6.02355469 -23.39039063 6.01195312 -24 6 C-23.67 4.68 -23.34 3.36 -23 2 C-22.34 2.33 -21.68 2.66 -21 3 C-15.12099626 3.62542593 -10.87524581 2.02646369 -5.453125 -0.22265625 C-3 -1 -3 -1 0 0 Z " fill="#126CA4" transform="translate(322,544)"/>
<path d="M0 0 C0.66 0 1.32 0 2 0 C0.99152842 2.67244967 0.35165078 3.80077339 -2.171875 5.23046875 C-10.01061234 8.14030306 -16.66704735 9.16665905 -25 9 C-25 8.67 -25 8.34 -25 8 C-24.10539063 7.82984375 -23.21078125 7.6596875 -22.2890625 7.484375 C-10.34886142 5.64029149 -10.34886142 5.64029149 0 0 Z " fill="#DDF8FD" transform="translate(224,464)"/>
<path d="M0 0 C0.33 0.66 0.66 1.32 1 2 C-0.24888032 5.46831905 -2.25741439 7.31373164 -5.0625 9.625 C-7.97875712 11.95485552 -7.97875712 11.95485552 -10 15 C-12.93704456 17.0095568 -14.39222485 18 -18 18 C-12.06 12.06 -6.12 6.12 0 0 Z " fill="#D3F0FD" transform="translate(511,225)"/>
<path d="M0 0 C5.54603965 3.7569946 9.38163185 7.34629976 13 13 C12.278125 12.814375 11.55625 12.62875 10.8125 12.4375 C7.87173027 11.98004693 5.85896942 12.26483643 3 13 C3.33 10.69 3.66 8.38 4 6 C2.68 5.34 1.36 4.68 0 4 C0 2.68 0 1.36 0 0 Z " fill="#1472B0" transform="translate(312,115)"/>
<path d="M0 0 C0.66 0.33 1.32 0.66 2 1 C1.17079358 6.05161282 -2.08989643 8.05289433 -6 11 C-8.91063785 12.89529907 -11.89402516 14.45682092 -15 16 C-7.94975689 7.63371151 -7.94975689 7.63371151 -5 5 C-4.34 5 -3.68 5 -3 5 C-2.67 4.01 -2.34 3.02 -2 2 C-1.34 2 -0.68 2 0 2 C0 1.34 0 0.68 0 0 Z " fill="#C6E8F6" transform="translate(531,341)"/>
<path d="M0 0 C0.33 0 0.66 0 1 0 C1.02505615 0.79583496 1.0501123 1.59166992 1.07592773 2.41162109 C1.19296986 6.06620168 1.31519962 9.72059175 1.4375 13.375 C1.47681641 14.62667969 1.51613281 15.87835938 1.55664062 17.16796875 C1.79421642 24.1490422 2.17504727 31.06229936 3 38 C1.51831055 36.99682617 1.51831055 36.99682617 0 35 C-0.26156261 32.27093638 -0.34921131 29.7753901 -0.29296875 27.05078125 C-0.28872391 26.27816452 -0.28447906 25.50554779 -0.28010559 24.70951843 C-0.26332183 22.24349008 -0.22567147 19.77828104 -0.1875 17.3125 C-0.17245271 15.63998577 -0.15876438 13.96745872 -0.14648438 12.29492188 C-0.11341946 8.19629922 -0.06164028 4.09828849 0 0 Z " fill="#D6F5FC" transform="translate(617,400)"/>
<path d="M0 0 C1.32 0.33 2.64 0.66 4 1 C-0.62 5.62 -5.24 10.24 -10 15 C-10.33 14.01 -10.66 13.02 -11 12 C-8.75 8.8125 -8.75 8.8125 -6 6 C-5.01 6 -4.02 6 -3 6 C-2.690625 5.195625 -2.38125 4.39125 -2.0625 3.5625 C-1 1 -1 1 0 0 Z " fill="#DBF5FE" transform="translate(482,182)"/>
<path d="M0 0 C1.32 0.33 2.64 0.66 4 1 C-1.28 5.95 -6.56 10.9 -12 16 C-12.33 15.34 -12.66 14.68 -13 14 C-11.38405168 11.95880212 -9.7143618 9.95927063 -8 8 C-7.34 8 -6.68 8 -6 8 C-5.9175 7.38125 -5.835 6.7625 -5.75 6.125 C-5 4 -5 4 -3 2.875 C-2.34 2.58625 -1.68 2.2975 -1 2 C-0.67 1.34 -0.34 0.68 0 0 Z " fill="#D6F3FA" transform="translate(488,312)"/>
<path d="M0 0 C0.99 0.33 1.98 0.66 3 1 C-1.95 5.95 -6.9 10.9 -12 16 C-12.33 15.01 -12.66 14.02 -13 13 C-11.71034824 11.62437146 -10.37310707 10.29233607 -9 9 C-8.34 9 -7.68 9 -7 9 C-7 8.01 -7 7.02 -7 6 C-5.57421875 4.359375 -5.57421875 4.359375 -3.6875 2.75 C-3.07261719 2.20859375 -2.45773437 1.6671875 -1.82421875 1.109375 C-0.92123047 0.56023437 -0.92123047 0.56023437 0 0 Z " fill="#DAF6FE" transform="translate(548,117)"/>
<path d="M0 0 C0.33 0 0.66 0 1 0 C2.32296047 6.37426409 2.32296047 6.37426409 1 8.9375 C-2.69744418 10.90176722 -6.30028378 10.51704654 -10.234375 9.3203125 C-12.17583066 8.59743007 -14.09067731 7.80392534 -16 7 C-12.45049966 5.83693557 -9.44176052 6.07634951 -5.75 6.4375 C-4.67234375 6.53933594 -3.5946875 6.64117187 -2.484375 6.74609375 C-1.66453125 6.82988281 -0.8446875 6.91367187 0 7 C0 4.69 0 2.38 0 0 Z " fill="#D5F3FA" transform="translate(668,464)"/>
<path d="M0 0 C1.0828125 1.11375 1.0828125 1.11375 2.1875 2.25 C4.85872834 4.96694449 4.85872834 4.96694449 7.5 6.9375 C10.42320625 9.34914516 12.60595036 12.0672892 15 15 C16.62957727 16.70993998 18.30524088 18.35366257 20 20 C19.01 20 18.02 20 17 20 C17 19.34 17 18.68 17 18 C16.195625 17.6596875 16.195625 17.6596875 15.375 17.3125 C8.80092406 13.67945803 4.11941018 8.20349048 0 2 C0 1.34 0 0.68 0 0 Z " fill="#297AAF" transform="translate(334,136)"/>
<path d="M0 0 C0.33 0.66 0.66 1.32 1 2 C0.22265625 3.7265625 0.22265625 3.7265625 -0.9375 5.625 C-1.618125 6.73875 -2.29875 7.8525 -3 9 C-2.34 9.33 -1.68 9.66 -1 10 C-4.3 10.66 -7.6 11.32 -11 12 C-7.47412292 7.81814579 -3.92446674 3.80904125 0 0 Z " fill="#0F78B8" transform="translate(541,127)"/>
<path d="M0 0 C2.475 0.99 2.475 0.99 5 2 C-1.15034169 9.48291572 -1.15034169 9.48291572 -5 12 C-3.85814266 7.52040582 -2.56984833 3.85477249 0 0 Z " fill="#0A72B0" transform="translate(472,257)"/>
<path d="M0 0 C0.33 0.66 0.66 1.32 1 2 C-0.25 4.5625 -0.25 4.5625 -2 7 C-2.99 7.33 -3.98 7.66 -5 8 C-5.433125 8.928125 -5.433125 8.928125 -5.875 9.875 C-7.93380198 13.76384819 -12.19474779 15.10547017 -16 17 C-11.01595832 10.96668638 -5.58084697 5.4815829 0 0 Z " fill="#CCEEFC" transform="translate(500,372)"/>
<path d="M0 0 C0 0.66 0 1.32 0 2 C-0.969375 2.28875 -1.93875 2.5775 -2.9375 2.875 C-6.10664203 3.64214682 -6.10664203 3.64214682 -7 6 C-11.95 6 -16.9 6 -22 6 C-22 5.67 -22 5.34 -22 5 C-20.72382813 4.72285156 -19.44765625 4.44570313 -18.1328125 4.16015625 C-16.46351107 3.79441043 -14.7942419 3.42851738 -13.125 3.0625 C-12.28324219 2.88009766 -11.44148438 2.69769531 -10.57421875 2.50976562 C-9.76855469 2.33251953 -8.96289062 2.15527344 -8.1328125 1.97265625 C-7.01737061 1.72914429 -7.01737061 1.72914429 -5.87939453 1.48071289 C-0.09040122 0 -0.09040122 0 0 0 Z " fill="#D5F2FB" transform="translate(319,546)"/>
<path d="M0 0 C4.32504836 1.65863505 7.09418825 4.871041 10.25 8.125 C11.08144531 8.96998047 11.08144531 8.96998047 11.9296875 9.83203125 C13.29104485 11.21686028 14.64614859 12.60783204 16 14 C15.01 14.495 15.01 14.495 14 15 C13.1028125 14.071875 13.1028125 14.071875 12.1875 13.125 C9.99188856 10.86323046 9.99188856 10.86323046 7 9 C6.34 8.34 5.68 7.68 5 7 C4.319375 6.54625 3.63875 6.0925 2.9375 5.625 C0.74307903 3.7845179 0.38376572 2.78230144 0 0 Z " fill="#1C70A3" transform="translate(394,335)"/>
<path d="M0 0 C0 3 0 3 -2 6 C-2.268125 6.680625 -2.53625 7.36125 -2.8125 8.0625 C-4.4232211 10.69051864 -6.16085373 10.91842047 -9 12 C-11.27191416 14.02040748 -11.27191416 14.02040748 -13 16 C-13.66 15.67 -14.32 15.34 -15 15 C-10.05 10.05 -5.1 5.1 0 0 Z " fill="#1C77AA" transform="translate(556,248)"/>
<path d="M0 0 C3.45100574 0.28758381 4.69035894 0.64197752 7 3.3125 C7.66 4.199375 8.32 5.08625 9 6 C10.63356951 7.37368345 12.2925002 8.71937515 14 10 C13.67 11.32 13.34 12.64 13 14 C12.64808594 13.56429687 12.29617188 13.12859375 11.93359375 12.6796875 C8.675384 8.74941882 5.28907059 5.37686667 1.3203125 2.1640625 C0.88460938 1.77992188 0.44890625 1.39578125 0 1 C0 0.67 0 0.34 0 0 Z " fill="#D3EEF8" transform="translate(328,130)"/>
<path d="M0 0 C0 4.27142576 -2.48286435 6.16071473 -5.25 9.125 C-5.74113281 9.67542969 -6.23226563 10.22585938 -6.73828125 10.79296875 C-11.25671167 15.6969719 -11.25671167 15.6969719 -15 16 C-10.30233025 10.33870569 -5.25276628 5.14771096 0 0 Z " fill="#CCEAF9" transform="translate(481,255)"/>
<path d="M0 0 C0.33 0 0.66 0 1 0 C1 1.98 1 3.96 1 6 C1.99 5.67 2.98 5.34 4 5 C3.67 9.29 3.34 13.58 3 18 C0.12563833 15.12563833 0.03237445 12.99972292 -0.09765625 8.984375 C-0.08605469 7.91703125 -0.07445312 6.8496875 -0.0625 5.75 C-0.04896484 4.13351562 -0.04896484 4.13351562 -0.03515625 2.484375 C-0.02355469 1.66453125 -0.01195312 0.8446875 0 0 Z " fill="#1279B6" transform="translate(522,500)"/>
<path d="M0 0 C-0.25 1.875 -0.25 1.875 -1 4 C-2.8125 5 -2.8125 5 -5 6 C-6.37086915 7.29470975 -7.71340837 8.62150897 -9 10 C-10.98 8.35 -12.96 6.7 -15 5 C-14.67 4.34 -14.34 3.68 -14 3 C-13.01 3.99 -12.02 4.98 -11 6 C-8.43548915 4.90092392 -6.90445054 3.9015551 -4.9375 1.875 C-3 0 -3 0 0 0 Z " fill="#1C72AD" transform="translate(442,364)"/>
<path d="M0 0 C0.66 0 1.32 0 2 0 C2.33 0.99 2.66 1.98 3 3 C-0.3 6.3 -3.6 9.6 -7 13 C-7.66 12.01 -8.32 11.02 -9 10 C-7.1875 8 -7.1875 8 -5 6 C-4.01 6 -3.02 6 -2 6 C-1.855625 5.195625 -1.71125 4.39125 -1.5625 3.5625 C-1 1 -1 1 0 0 Z " fill="#EBF6FE" transform="translate(573,226)"/>
<path d="M0 0 C0.33 0 0.66 0 1 0 C1.85817892 8.44829469 -0.23331395 15.43238529 -4 23 C-4.66 23.33 -5.32 23.66 -6 24 C-6 22.35 -6 20.7 -6 19 C-5.34 19 -4.68 19 -4 19 C-3.86722656 18.28972656 -3.73445312 17.57945312 -3.59765625 16.84765625 C-3.42105469 15.92855469 -3.24445313 15.00945312 -3.0625 14.0625 C-2.88847656 13.14597656 -2.71445313 12.22945313 -2.53515625 11.28515625 C-2 9 -2 9 -1 8 C-0.76924918 6.65252916 -0.58846937 5.29622435 -0.4375 3.9375 C-0.293125 2.638125 -0.14875 1.33875 0 0 Z " fill="#2874A9" transform="translate(246,424)"/>
<path d="M0 0 C0.99 0.33 1.98 0.66 3 1 C3 2.32 3 3.64 3 5 C2.34 5 1.68 5 1 5 C1 5.99 1 6.98 1 8 C-0.65 8.33 -2.3 8.66 -4 9 C-3.67 8.01 -3.34 7.02 -3 6 C-3.66 5.67 -4.32 5.34 -5 5 C-3.35 3.35 -1.7 1.7 0 0 Z " fill="#E4F1F4" transform="translate(445,291)"/>
<path d="M0 0 C0.33 0.66 0.66 1.32 1 2 C-3.74576271 9.45762712 -3.74576271 9.45762712 -7 12 C-8.32 11.67 -9.64 11.34 -11 11 C-7.37 7.37 -3.74 3.74 0 0 Z " fill="#E0F3F9" transform="translate(462,274)"/>
<path d="M0 0 C0 3.81307353 -1.03542447 5.74828878 -3 9 C-5.4375 10.9375 -5.4375 10.9375 -8 12 C-10.16015625 11.56640625 -10.16015625 11.56640625 -12 11 C-11.46890625 10.54109375 -10.9378125 10.0821875 -10.390625 9.609375 C-6.81675301 6.50506283 -3.28145941 3.41818688 0 0 Z " fill="#1772A9" transform="translate(444,224)"/>
<path d="M0 0 C1.65 0 3.3 0 5 0 C1.32167983 4.52615993 -2.41086363 8.39424999 -7 12 C-7 11.01 -7 10.02 -7 9 C-6.34 9 -5.68 9 -5 9 C-5 7.68 -5 6.36 -5 5 C-3.35 4.67 -1.7 4.34 0 4 C0 2.68 0 1.36 0 0 Z " fill="#2176A9" transform="translate(444,423)"/>
<path d="M0 0 C0 3 0 3 -1.4609375 4.68359375 C-2.09257812 5.26238281 -2.72421875 5.84117187 -3.375 6.4375 C-5.4099004 8.30910592 -6.8443436 9.68124774 -8.0625 12.17578125 C-8.371875 12.77777344 -8.68125 13.37976563 -9 14 C-11.625 14.75 -11.625 14.75 -14 15 C-11.81803833 10.49970405 -8.70088554 7.79884736 -4.9375 4.6484375 C-3.19940969 3.16965905 -1.58765073 1.63726481 0 0 Z " fill="#1872A8" transform="translate(504,300)"/>
<path d="M0 0 C0.99 0.33 1.98 0.66 3 1 C-0.96 4.96 -4.92 8.92 -9 13 C-9.33 12.01 -9.66 11.02 -10 10 C-7.75 6.8125 -7.75 6.8125 -5 4 C-4.01 4 -3.02 4 -2 4 C-1.34 2.68 -0.68 1.36 0 0 Z " fill="#D9F5FE" transform="translate(497,168)"/>
<path d="M0 0 C2.97 0.33 5.94 0.66 9 1 C9 1.66 9 2.32 9 3 C9.99 3.33 10.98 3.66 12 4 C10.35 5.32 8.7 6.64 7 8 C5.83035398 6.8572081 4.66435444 5.71068285 3.5 4.5625 C2.8503125 3.92441406 2.200625 3.28632813 1.53125 2.62890625 C0 1 0 1 0 0 Z " fill="#217BAD" transform="translate(425,432)"/>
<path d="M0 0 C0.66 0.66 1.32 1.32 2 2 C-2.29 6.29 -6.58 10.58 -11 15 C-11.33 14.01 -11.66 13.02 -12 12 C-11.38125 11.7525 -10.7625 11.505 -10.125 11.25 C-7.88261155 10.19037241 -7.88261155 10.19037241 -7.0625 8.125 C-5.63373753 5.26747507 -3.50563296 3.92740997 -1 2 C-0.67 1.34 -0.34 0.68 0 0 Z " fill="#DEF7FD" transform="translate(460,340)"/>
<path d="M0 0 C0.99 0 1.98 0 3 0 C1.79618552 2.49361571 0.54571278 4.68143083 -1 7 C-0.01 7 0.98 7 2 7 C2 6.34 2 5.68 2 5 C2.99 5.33 3.98 5.66 5 6 C2.69 7.98 0.38 9.96 -2 12 C-2.83859288 8.11197844 -3.3306491 5.77702538 -1.75 2.0625 C-0.88375 1.0415625 -0.88375 1.0415625 0 0 Z " fill="#086DC0" transform="translate(483,243)"/>
<path d="M0 0 C1.32 0.33 2.64 0.66 4 1 C0.37 4.63 -3.26 8.26 -7 12 C-7.33 10.68 -7.66 9.36 -8 8 C-6.25 5.75 -6.25 5.75 -4 4 C-3.01 4 -2.02 4 -1 4 C-0.67 2.68 -0.34 1.36 0 0 Z " fill="#D5F0FC" transform="translate(529,271)"/>
<path d="M0 0 C1.32 0.66 2.64 1.32 4 2 C4.33 1.34 4.66 0.68 5 0 C5 2.64 5 5.28 5 8 C5.66 8.33 6.32 8.66 7 9 C4 9 4 9 2.39453125 7.46875 C1.87246094 6.8190625 1.35039062 6.169375 0.8125 5.5 C0.28269531 4.8503125 -0.24710937 4.200625 -0.79296875 3.53125 C-1.19128906 3.0259375 -1.58960938 2.520625 -2 2 C-1.34 2 -0.68 2 0 2 C0 1.34 0 0.68 0 0 Z " fill="#197DBC" transform="translate(378,244)"/>
<path d="M0 0 C0.33 0.66 0.66 1.32 1 2 C1.66 2.33 2.32 2.66 3 3 C0.69 5.31 -1.62 7.62 -4 10 C-5 7 -5 7 -4 4 C-4 3.01 -4 2.02 -4 1 C-2.68 0.67 -1.36 0.34 0 0 Z " fill="#E6F8FC" transform="translate(508,155)"/>
<path d="M0 0 C0.66 0 1.32 0 2 0 C2.98219627 1.76915475 3.96065359 3.54038569 4.9375 5.3125 C5.48277344 6.29863281 6.02804687 7.28476562 6.58984375 8.30078125 C8 11 8 11 9 14 C11.00016466 15.20882096 11.00016466 15.20882096 13 16 C10 16 10 16 7.625 14.0625 C4.29663562 10.54192005 0 4.9780515 0 0 Z " fill="#217BAA" transform="translate(622,441)"/>
<path d="M0 0 C1.32 0.33 2.64 0.66 4 1 C1.03 3.97 -1.94 6.94 -5 10 C-5.66 9.01 -6.32 8.02 -7 7 C-5.93283928 5.79794536 -4.84561663 4.61367667 -3.75 3.4375 C-3.14671875 2.77621094 -2.5434375 2.11492187 -1.921875 1.43359375 C-1.28765625 0.96050781 -0.6534375 0.48742187 0 0 Z " fill="#E2F5FE" transform="translate(553,247)"/>
<path d="M0 0 C0.99 0.33 1.98 0.66 3 1 C-0.96 4.96 -4.92 8.92 -9 13 C-9.33 12.01 -9.66 11.02 -10 10 C-9.0479279 8.99403703 -8.08812654 7.99538437 -7.125 7 C-6.32449219 6.1646875 -6.32449219 6.1646875 -5.5078125 5.3125 C-4 4 -4 4 -2 4 C-1.34 2.68 -0.68 1.36 0 0 Z " fill="#D6F4FE" transform="translate(465,200)"/>
<path d="M0 0 C0.99 0.33 1.98 0.66 3 1 C2.938125 1.78375 2.87625 2.5675 2.8125 3.375 C2.874375 4.24125 2.93625 5.1075 3 6 C3.99 6.66 4.98 7.32 6 8 C5.67 8.99 5.34 9.98 5 11 C2.03 8.03 -0.94 5.06 -4 2 C-2.68 1.34 -1.36 0.68 0 0 Z " fill="#1D79B3" transform="translate(419,421)"/>
<path d="M0 0 C1.65 0.33 3.3 0.66 5 1 C-1.15034169 8.48291572 -1.15034169 8.48291572 -5 11 C-4.67 8.69 -4.34 6.38 -4 4 C-3.67 4.66 -3.34 5.32 -3 6 C-2.34 6 -1.68 6 -1 6 C-0.67 4.02 -0.34 2.04 0 0 Z " fill="#1679B3" transform="translate(537,193)"/>
<path d="M0 0 C0 2.31 0 4.62 0 7 C-1.32 7.33 -2.64 7.66 -4 8 C-4.66 6.35 -5.32 4.7 -6 3 C-2.25 0 -2.25 0 0 0 Z " fill="#046EB9" transform="translate(569,375)"/>
<path d="M0 0 C6.17324738 4.7284448 6.17324738 4.7284448 7 9 C8.97901574 11.22977996 8.97901574 11.22977996 11 13 C9.68 13.33 8.36 13.66 7 14 C6.67 13.01 6.34 12.02 6 11 C5.34 10.67 4.68 10.34 4 10 C3.67 10.66 3.34 11.32 3 12 C3.0928125 10.63875 3.0928125 10.63875 3.1875 9.25 C2.98016583 5.65620765 2.27539763 4.65463057 0 2 C0 1.34 0 0.68 0 0 Z " fill="#1B81BB" transform="translate(422,361)"/>
<path d="M0 0 C0 4.36618677 -2.20081831 6.77485588 -5 10 C-7.6875 12 -7.6875 12 -10 13 C-10.66 12.67 -11.32 12.34 -12 12 C-8.04 8.04 -4.08 4.08 0 0 Z " fill="#2E81AF" transform="translate(586,218)"/>
<path d="M0 0 C0 3 0 3 -1 6 C-2.95597184 7.39712274 -4.95436401 8.73779907 -7 10 C-7.66 9.67 -8.32 9.34 -9 9 C-8.06725891 7.87105124 -7.12859878 6.74699124 -6.1875 5.625 C-5.66542969 4.99851563 -5.14335938 4.37203125 -4.60546875 3.7265625 C-3 2 -3 2 0 0 Z " fill="#F3FEF3" transform="translate(571,225)"/>
<path d="M0 0 C0.33 0.66 0.66 1.32 1 2 C-0.3125 4.625 -0.3125 4.625 -2 7 C-2.66 7 -3.32 7 -4 7 C-4 7.66 -4 8.32 -4 9 C-4.66 9 -5.32 9 -6 9 C-6 9.66 -6 10.32 -6 11 C-7.32 10.67 -8.64 10.34 -10 10 C-6.7 6.7 -3.4 3.4 0 0 Z " fill="#2A81B3" transform="translate(597,207)"/>
<path d="M0 0 C3.62043799 0.94131388 6.67207555 1.82920601 10 3.5625 C13.36491949 5.17485726 16.30610043 5.63061004 20 6 C19.67 6.66 19.34 7.32 19 8 C11.93463111 6.74646681 6.28543527 4.43796251 0 1 C0 0.67 0 0.34 0 0 Z " fill="#2A7EB2" transform="translate(640,463)"/>
<path d="M0 0 C0.33 0 0.66 0 1 0 C1.02712153 1.916588 1.04645097 3.8332873 1.0625 5.75 C1.07410156 6.81734375 1.08570313 7.8846875 1.09765625 8.984375 C1.01510087 11.53368501 0.74617558 13.57933591 0 16 C-1.32 16.33 -2.64 16.66 -4 17 C-3.79503906 16.35933594 -3.59007812 15.71867187 -3.37890625 15.05859375 C-1.81172636 10.02712149 -0.56957826 5.24011997 0 0 Z " fill="#D6F3FC" transform="translate(247,427)"/>
<path d="M0 0 C0.33 0.99 0.66 1.98 1 3 C1.99 3.33 2.98 3.66 4 4 C1.69 5.98 -0.62 7.96 -3 10 C-3.75 7.25 -3.75 7.25 -4 4 C-2.0625 1.625 -2.0625 1.625 0 0 Z " fill="#117AB9" transform="translate(549,180)"/>
<path d="M0 0 C4.875 4.75 4.875 4.75 6 7 C6.99 7.33 7.98 7.66 9 8 C9.33 9.65 9.66 11.3 10 13 C-0.11764706 4.76470588 -0.11764706 4.76470588 -2 1 C-1.34 0.67 -0.68 0.34 0 0 Z " fill="#D0ECF7" transform="translate(372,171)"/>
<path d="M0 0 C2.86724686 0.57344937 3.8614515 0.8614515 6 3 C6 3.99 6 4.98 6 6 C3.6875 6.25 3.6875 6.25 1 6 C-0.8125 4 -0.8125 4 -2 2 C-1.34 2 -0.68 2 0 2 C0 1.34 0 0.68 0 0 Z " fill="#ECF5F6" transform="translate(314,112)"/>
<path d="M0 0 C2.475 0.495 2.475 0.495 5 1 C5.33 1.99 5.66 2.98 6 4 C7.65 4 9.3 4 11 4 C11 3.34 11 2.68 11 2 C11.99 2.33 12.98 2.66 14 3 C12.35 4.65 10.7 6.3 9 8 C4.7257442 6.4169423 2.73468206 3.49431596 0 0 Z " fill="#BEE9F7" transform="translate(424,363)"/>
<path d="M0 0 C0.33 1.32 0.66 2.64 1 4 C-2.75 7 -2.75 7 -5 7 C-5 7.99 -5 8.98 -5 10 C-6.32 9.67 -7.64 9.34 -9 9 C-6.03 6.03 -3.06 3.06 0 0 Z " fill="#2074AA" transform="translate(562,378)"/>
<path d="M0 0 C1.14926266 0.95421808 2.29430541 1.91352045 3.4375 2.875 C4.07558594 3.40867188 4.71367187 3.94234375 5.37109375 4.4921875 C7 6 7 6 8 8 C6.1875 8.625 6.1875 8.625 4 9 C3.01 8.34 2.02 7.68 1 7 C0.3125 3.375 0.3125 3.375 0 0 Z " fill="#247EB6" transform="translate(216,155)"/>
<path d="M0 0 C0.33 0 0.66 0 1 0 C1 1.65 1 3.3 1 5 C0.01 5.33 -0.98 5.66 -2 6 C-2 6.66 -2 7.32 -2 8 C-3.65 8 -5.3 8 -7 8 C-6.02133662 6.85373678 -5.04205413 5.70800212 -4.0625 4.5625 C-3.51722656 3.92441406 -2.97195313 3.28632813 -2.41015625 2.62890625 C-1.63204305 1.73008851 -0.84063472 0.84063472 0 0 Z " fill="#2881B4" transform="translate(481,322)"/>
<path d="M0 0 C2.91227269 3.28804981 4.49701212 5.59885603 5 10 C3.87105124 9.06725891 2.74699124 8.12859878 1.625 7.1875 C0.99851562 6.66542969 0.37203125 6.14335937 -0.2734375 5.60546875 C-2 4 -2 4 -4 1 C-2.68 0.67 -1.36 0.34 0 0 Z " fill="#2280B9" transform="translate(371,236)"/>
<path d="M0 0 C3.8231624 1.50195666 5.5556377 3.76713373 8 7 C8.98230498 8.0173873 9.97469597 9.02596117 11 10 C7.75728494 9.4409112 6.06942576 8.5867822 4 6 C4 5.34 4 4.68 4 4 C3.01 4 2.02 4 1 4 C0.67 4.66 0.34 5.32 0 6 C0 4.02 0 2.04 0 0 Z " fill="#D0EFF7" transform="translate(346,217)"/>
<path d="M0 0 C2.65664779 0.15180845 4.45217862 0.52011425 6.48046875 2.296875 C7.875 3.875 7.875 3.875 10 7 C9.67 7.99 9.34 8.98 9 10 C5.73991357 6.83047153 2.77762123 3.60062011 0 0 Z " fill="#D3EDF7" transform="translate(400,202)"/>
<path d="M0 0 C1.32 0.33 2.64 0.66 4 1 C1.03 3.97 -1.94 6.94 -5 10 C-5.33 9.01 -5.66 8.02 -6 7 C-5.360625 6.7525 -4.72125 6.505 -4.0625 6.25 C-1.81723287 5.19352316 -1.81723287 5.19352316 -1.3125 2.9375 C-1.1578125 1.9784375 -1.1578125 1.9784375 -1 1 C-0.67 0.67 -0.34 0.34 0 0 Z " fill="#DAF6FE" transform="translate(557,107)"/>
<path d="M0 0 C1 3 1 3 0.00390625 5.48046875 C-0.47175781 6.37378906 -0.94742187 7.26710938 -1.4375 8.1875 C-1.91058594 9.08855469 -2.38367188 9.98960937 -2.87109375 10.91796875 C-3.24363281 11.60503906 -3.61617188 12.29210937 -4 13 C-5.231394 9.30581799 -4.64432764 6.7943739 -4 3 C-3.01 2.67 -2.02 2.34 -1 2 C-0.67 1.34 -0.34 0.68 0 0 Z " fill="#2174A7" transform="translate(341,518)"/>
<path d="M0 0 C0.99 0.66 1.98 1.32 3 2 C-0.17320782 5.53586014 -2.16743695 7.58578031 -7 8 C-6.02133662 6.85373678 -5.04205413 5.70800212 -4.0625 4.5625 C-3.51722656 3.92441406 -2.97195313 3.28632813 -2.41015625 2.62890625 C-1.63204305 1.73008851 -0.84063472 0.84063472 0 0 Z " fill="#227CB0" transform="translate(546,394)"/>
<path d="M0 0 C1.0828125 1.11375 1.0828125 1.11375 2.1875 2.25 C4.88362128 4.99559988 4.88362128 4.99559988 7.6875 7.0625 C9.95481664 8.96214367 10.93247248 10.28265723 12 13 C7.78221931 11.65963446 5.81890551 10.03147232 3.1875 6.5 C2.58292969 5.7059375 1.97835938 4.911875 1.35546875 4.09375 C0 2 0 2 0 0 Z " fill="#287FB4" transform="translate(406,208)"/>
<path d="M0 0 C0 3.93169105 -1.39419615 5.16427228 -4 8 C-4.66 8 -5.32 8 -6 8 C-6 8.66 -6 9.32 -6 10 C-7.65 10.66 -9.3 11.32 -11 12 C-7.49102731 7.81576108 -3.91939465 3.80411834 0 0 Z " fill="#DDF8FE" transform="translate(554,182)"/>
<path d="M0 0 C1.65 0.99 3.3 1.98 5 3 C3.68 3.33 2.36 3.66 1 4 C1.20625 4.556875 1.4125 5.11375 1.625 5.6875 C2.10695211 8.659538 1.26565028 10.31979941 0 13 C-0.33 13 -0.66 13 -1 13 C-1.0272415 11.58344207 -1.04650467 10.16672955 -1.0625 8.75 C-1.07410156 7.96109375 -1.08570313 7.1721875 -1.09765625 6.359375 C-1.00385306 4.09308998 -0.63241063 2.1711105 0 0 Z " fill="#147FC3" transform="translate(203,142)"/>
<path d="M0 0 C1.5 1.0625 1.5 1.0625 3 3 C3.1875 6.6875 3.1875 6.6875 3 10 C0.525 9.01 0.525 9.01 -2 8 C-2 6.35 -2 4.7 -2 3 C-1.34 2.67 -0.68 2.34 0 2 C0 1.34 0 0.68 0 0 Z " fill="#1080C5" transform="translate(422,224)"/>
<path d="M0 0 C3.33523252 1.38009621 5.18607951 2.84950652 7 6 C6.67 6.99 6.34 7.98 6 9 C3.69 6.69 1.38 4.38 -1 2 C-0.67 1.34 -0.34 0.68 0 0 Z " fill="#D2ECF6" transform="translate(305,105)"/>
<path d="M0 0 C2.64 0 5.28 0 8 0 C7.01 0.495 7.01 0.495 6 1 C6 2.32 6 3.64 6 5 C6.66 5 7.32 5 8 5 C7.67 5.99 7.34 6.98 7 8 C5.83035398 6.8572081 4.66435444 5.71068285 3.5 4.5625 C2.8503125 3.92441406 2.200625 3.28632813 1.53125 2.62890625 C0 1 0 1 0 0 Z " fill="#1C75AF" transform="translate(399,406)"/>
<path d="M0 0 C1.32 0.33 2.64 0.66 4 1 C1.36 3.64 -1.28 6.28 -4 9 C-4.66 8.01 -5.32 7.02 -6 6 C-5.195625 5.7525 -4.39125 5.505 -3.5625 5.25 C-0.828919 4.27761141 -0.828919 4.27761141 -0.1875 1.875 C-0.125625 1.25625 -0.06375 0.6375 0 0 Z " fill="#DCF6FE" transform="translate(556,380)"/>
<path d="M0 0 C1 2 1 2 0.4375 4.5625 C-1 7 -1 7 -4.125 7.8125 C-5.548125 7.9053125 -5.548125 7.9053125 -7 8 C-6.02133662 6.85373678 -5.04205413 5.70800212 -4.0625 4.5625 C-3.51722656 3.92441406 -2.97195313 3.28632813 -2.41015625 2.62890625 C-1.63204305 1.73008851 -0.84063472 0.84063472 0 0 Z " fill="#2679B0" transform="translate(449,354)"/>
<path d="M0 0 C6.0546875 -0.1953125 6.0546875 -0.1953125 8 0 C8.66 0.66 9.32 1.32 10 2 C8.41727399 3.58272601 6.61965997 3.34735747 4.4375 3.5625 C3.19806641 3.68818359 3.19806641 3.68818359 1.93359375 3.81640625 C0.97646484 3.90728516 0.97646484 3.90728516 0 4 C0 2.68 0 1.36 0 0 Z " fill="#046FB3" transform="translate(400,349)"/>
<path d="M0 0 C0 3.25811062 -0.5522078 5.10441559 -2 8 C-2.99 8.33 -3.98 8.66 -5 9 C-5.66 8.34 -6.32 7.68 -7 7 C-4.69 4.69 -2.38 2.38 0 0 Z " fill="#2980B6" transform="translate(473,330)"/>
<path d="M0 0 C0.99 0.33 1.98 0.66 3 1 C3 1.66 3 2.32 3 3 C1.02678947 4.3726682 -0.97543152 5.70427617 -3 7 C-3.66 7.66 -4.32 8.32 -5 9 C-5.66 8.34 -6.32 7.68 -7 7 C-4.69 4.69 -2.38 2.38 0 0 Z " fill="#DAF0FB" transform="translate(492,244)"/>
<path d="M0 0 C0.625 1.8125 0.625 1.8125 1 4 C-1 7 -1 7 -4.125 7.6875 C-5.07375 7.790625 -6.0225 7.89375 -7 8 C-6.34 7.67 -5.68 7.34 -5 7 C-4.690625 6.38125 -4.38125 5.7625 -4.0625 5.125 C-2.97094732 2.94189465 -1.79288485 1.62989532 0 0 Z " fill="#2D8CBD" transform="translate(637,167)"/>
<path d="M0 0 C2.31 0 4.62 0 7 0 C7 1.32 7 2.64 7 4 C7.2981424 5.34164079 7.62243192 6.67851173 8 8 C6.85073734 7.04578192 5.70569459 6.08647955 4.5625 5.125 C3.92441406 4.59132812 3.28632813 4.05765625 2.62890625 3.5078125 C1 2 1 2 0 0 Z " fill="#D6EFFB" transform="translate(232,171)"/>
<path d="M0 0 C1.32 0.33 2.64 0.66 4 1 C1.69 3.31 -0.62 5.62 -3 8 C-3.33 6.68 -3.66 5.36 -4 4 C-2.3125 1.6875 -2.3125 1.6875 0 0 Z " fill="#D0EFF9" transform="translate(662,139)"/>
<path d="M0 0 C0.99 0 1.98 0 3 0 C3.625 1.8125 3.625 1.8125 4 4 C3.01 5.485 3.01 5.485 2 7 C1.01 6.67 0.02 6.34 -1 6 C-1.042721 4.33388095 -1.04063832 2.66617115 -1 1 C-0.67 0.67 -0.34 0.34 0 0 Z " fill="#056EB2" transform="translate(324,530)"/>
<path d="M0 0 C1.98 0 3.96 0 6 0 C6.66 2.64 7.32 5.28 8 8 C6.85073734 7.04578192 5.70569459 6.08647955 4.5625 5.125 C3.92441406 4.59132813 3.28632813 4.05765625 2.62890625 3.5078125 C1 2 1 2 0 0 Z " fill="#C9E9F6" transform="translate(414,353)"/>
<path d="M0 0 C0 3.39593478 -0.52165948 4.06619881 -2.5 6.6875 C-2.9640625 7.31011719 -3.428125 7.93273437 -3.90625 8.57421875 C-4.2671875 9.04472656 -4.628125 9.51523437 -5 10 C-6.32 9.67 -7.64 9.34 -9 9 C-6.03 6.03 -3.06 3.06 0 0 Z " fill="#E3F9FD" transform="translate(553,320)"/>
<path d="M0 0 C0.6875 1.8125 0.6875 1.8125 1 4 C-0.64504011 6.46756016 -1.80299352 6.94960299 -4.6875 7.6875 C-5.8321875 7.8421875 -5.8321875 7.8421875 -7 8 C-6.02133662 6.85373678 -5.04205413 5.70800212 -4.0625 4.5625 C-3.51722656 3.92441406 -2.97195313 3.28632813 -2.41015625 2.62890625 C-1.63204305 1.73008851 -0.84063472 0.84063472 0 0 Z " fill="#E2FAFF" transform="translate(463,409)"/>
<path d="M0 0 C1.14926266 0.95421808 2.29430541 1.91352045 3.4375 2.875 C4.07558594 3.40867187 4.71367187 3.94234375 5.37109375 4.4921875 C7 6 7 6 8 8 C2.25 6.25 2.25 6.25 0 4 C0 2.68 0 1.36 0 0 Z " fill="#DDFBFF" transform="translate(394,402)"/>
<path d="M0 0 C1.12894876 0.93274109 2.25300876 1.87140122 3.375 2.8125 C4.00148438 3.33457031 4.62796875 3.85664063 5.2734375 4.39453125 C7 6 7 6 9 9 C8.01 9 7.02 9 6 9 C6 8.34 6 7.68 6 7 C5.34 7 4.68 7 4 7 C4 6.34 4 5.68 4 5 C2.68 5 1.36 5 0 5 C0 3.35 0 1.7 0 0 Z " fill="#DFF8FD" transform="translate(400,271)"/>
<path d="M0 0 C0 3 0 3 -1.625 5.625 C-4.43693229 8.43693229 -6.10240081 8.7342546 -10 9 C-7.85177953 5.7776693 -6.2725249 4.91562433 -3 3 C-1.24850835 1.41754725 -1.24850835 1.41754725 0 0 Z " fill="#0D76B4" transform="translate(548,258)"/>
<path d="M0 0 C1.1446875 0.2475 1.1446875 0.2475 2.3125 0.5 C5.03596236 1.09145396 5.03596236 1.09145396 8 1 C8 2.65 8 4.3 8 6 C4.74456771 5.65120368 3.98126893 4.97866739 1.75 2.4375 C1.1725 1.633125 0.595 0.82875 0 0 Z " fill="#DAEEF6" transform="translate(392,194)"/>
<path d="M0 0 C2.52588702 2.36292656 3.88820837 3.66462511 5 7 C2 7 2 7 0.61328125 5.6875 C-0.59114583 4.125 -1.79557292 2.5625 -3 1 C-2.01 0.67 -1.02 0.34 0 0 Z " fill="#DAF4FC" transform="translate(243,178)"/>
<path d="M0 0 C0.33 0 0.66 0 1 0 C1.05410687 1.77049689 1.09284119 3.54146849 1.125 5.3125 C1.14820313 6.29863281 1.17140625 7.28476562 1.1953125 8.30078125 C1 11 1 11 -1 14 C-1.66 14 -2.32 14 -3 14 C-2.01 9.38 -1.02 4.76 0 0 Z " fill="#CEEFFB" transform="translate(345,506)"/>
<path d="M0 0 C0.33 0.66 0.66 1.32 1 2 C0.21625 2.763125 -0.5675 3.52625 -1.375 4.3125 C-4.07257717 6.90891805 -4.07257717 6.90891805 -6 10 C-6.99 9.67 -7.98 9.34 -9 9 C-6.03 6.03 -3.06 3.06 0 0 Z " fill="#DEFDFF" transform="translate(446,426)"/>
<path d="M0 0 C0.99 0.33 1.98 0.66 3 1 C2.6875 3.375 2.6875 3.375 2 6 C1.01 6.66 0.02 7.32 -1 8 C-1.04241723 5.66705225 -1.04092937 3.33297433 -1 1 C-0.67 0.67 -0.34 0.34 0 0 Z " fill="#046EB1" transform="translate(396,343)"/>
<path d="M0 0 C2.97 0.495 2.97 0.495 6 1 C6.33 2.98 6.66 4.96 7 7 C3.42895561 5.12050295 1.45255699 3.82946843 0 0 Z " fill="#1D7CB0" transform="translate(358,227)"/>
<path d="M0 0 C0.99 0.66 1.98 1.32 3 2 C3.66 2 4.32 2 5 2 C4.67 3.98 4.34 5.96 4 8 C2.02 6.35 0.04 4.7 -2 3 C-1.34 2.67 -0.68 2.34 0 2 C0 1.34 0 0.68 0 0 Z " fill="#DAEEF6" transform="translate(426,224)"/>
<path d="M0 0 C0.99 0.33 1.98 0.66 3 1 C0.69 3.31 -1.62 5.62 -4 8 C-4.33 6.68 -4.66 5.36 -5 4 C-4.34 3.34 -3.68 2.68 -3 2 C-2.01 2 -1.02 2 0 2 C0 1.34 0 0.68 0 0 Z " fill="#D9F3FE" transform="translate(447,218)"/>
<path d="M0 0 C0.99 0.33 1.98 0.66 3 1 C3.6875 3.0625 3.6875 3.0625 4 5 C3.01 5.33 2.02 5.66 1 6 C-1.1875 4.5625 -1.1875 4.5625 -3 3 C-2.01 2.01 -1.02 1.02 0 0 Z " fill="#1984C5" transform="translate(621,183)"/>
<path d="M0 0 C0.99 0.33 1.98 0.66 3 1 C0.69 3.31 -1.62 5.62 -4 8 C-4.33 7.01 -4.66 6.02 -5 5 C-3.35 3.35 -1.7 1.7 0 0 Z " fill="#DBF5FD" transform="translate(516,149)"/>
<path d="M0 0 C-4.95 2.475 -4.95 2.475 -10 5 C-10 4.01 -10 3.02 -10 2 C-3.375 -1.125 -3.375 -1.125 0 0 Z " fill="#2575A8" transform="translate(322,544)"/>
<path d="M0 0 C5.75 1.75 5.75 1.75 8 4 C7.625 6.125 7.625 6.125 7 8 C5.83035398 6.8572081 4.66435444 5.71068285 3.5 4.5625 C2.8503125 3.92441406 2.200625 3.28632813 1.53125 2.62890625 C0 1 0 1 0 0 Z " fill="#2278AA" transform="translate(407,414)"/>
<path d="M0 0 C0.99 0.33 1.98 0.66 3 1 C0.69 3.31 -1.62 5.62 -4 8 C-4.33 6.68 -4.66 5.36 -5 4 C-2.6875 1.9375 -2.6875 1.9375 0 0 Z " fill="#2374A7" transform="translate(460,409)"/>
<path d="M0 0 C0.33 0 0.66 0 1 0 C1 2.64 1 5.28 1 8 C1.66 8 2.32 8 3 8 C3 8.99 3 9.98 3 11 C3.66 11 4.32 11 5 11 C4.67 11.99 4.34 12.98 4 14 C2 12.625 2 12.625 0 10 C-0.35791096 6.6419531 -0.23115823 3.36463643 0 0 Z " fill="#1F70A6" transform="translate(394,392)"/>
<path d="M0 0 C0.99 0.33 1.98 0.66 3 1 C0.36 3.64 -2.28 6.28 -5 9 C-5.33 8.01 -5.66 7.02 -6 6 C-5.195625 5.38125 -4.39125 4.7625 -3.5625 4.125 C-0.96125481 2.25835959 -0.96125481 2.25835959 0 0 Z " fill="#DEF9FD" transform="translate(468,332)"/>
<path d="M0 0 C1.32 0.66 2.64 1.32 4 2 C0.535 4.97 0.535 4.97 -3 8 C-3 6.68 -3 5.36 -3 4 C-2.34 3.67 -1.68 3.34 -1 3 C-0.67 2.01 -0.34 1.02 0 0 Z " fill="#297EB4" transform="translate(547,321)"/>
<path d="M0 0 C3.91402949 1.26941497 5.79072873 2.51167694 8 6 C7.67 6.66 7.34 7.32 7 8 C5.83035398 6.8572081 4.66435444 5.71068285 3.5 4.5625 C2.8503125 3.92441406 2.200625 3.28632813 1.53125 2.62890625 C0 1 0 1 0 0 Z M7 0 C7.33 0.99 7.66 1.98 8 3 C7.34 2.67 6.68 2.34 6 2 C6.33 1.34 6.66 0.68 7 0 Z " fill="#1477B2" transform="translate(422,292)"/>
<path d="M0 0 C0.33 0.66 0.66 1.32 1 2 C0.360625 2.598125 -0.27875 3.19625 -0.9375 3.8125 C-3.20310389 5.90810337 -3.20310389 5.90810337 -4 9 C-5.32 8.67 -6.64 8.34 -8 8 C-5.36 5.36 -2.72 2.72 0 0 Z " fill="#2C79AA" transform="translate(565,239)"/>
<path d="M0 0 C0.99 0 1.98 0 3 0 C3.33 0.66 3.66 1.32 4 2 C5.65 1.67 7.3 1.34 9 1 C7.84826645 3.46800047 6.95216435 5.04783565 5 7 C3.35 4.69 1.7 2.38 0 0 Z " fill="#1974AE" transform="translate(347,216)"/>
<path d="M0 0 C0.99 0.33 1.98 0.66 3 1 C0.69 3.31 -1.62 5.62 -4 8 C-4.33 7.01 -4.66 6.02 -5 5 C-3.35 3.35 -1.7 1.7 0 0 Z " fill="#DAF5FD" transform="translate(532,133)"/>
<path d="M0 0 C1.98 0.495 1.98 0.495 4 1 C2.63016497 4.16115776 2.0109362 4.9927092 -1 7 C-0.67 4.69 -0.34 2.38 0 0 Z " fill="#CCEEF8" transform="translate(523,412)"/>
<path d="M0 0 C0.99 0 1.98 0 3 0 C1.50902342 3.7952131 -0.75700849 5.61042731 -4 8 C-3.40353695 4.65980694 -2.31705841 2.49529367 0 0 Z " fill="#277BAE" transform="translate(557,312)"/>
<path d="M0 0 C0.66 0.33 1.32 0.66 2 1 C1.6875 2.875 1.6875 2.875 1 5 C-2 7 -2 7 -4.1875 6.625 C-4.785625 6.41875 -5.38375 6.2125 -6 6 C-5.38125 5.7525 -4.7625 5.505 -4.125 5.25 C-1.64931313 3.79371361 -1.04874998 2.62187494 0 0 Z " fill="#017ACA" transform="translate(638,169)"/>
<path d="M0 0 C1.65 0 3.3 0 5 0 C5 0.99 5 1.98 5 3 C3 4.6875 3 4.6875 1 6 C1 5.01 1 4.02 1 3 C0.34 2.67 -0.32 2.34 -1 2 C-0.67 1.34 -0.34 0.68 0 0 Z " fill="#DDF0F7" transform="translate(645,153)"/>
<path d="M0 0 C2.5 1.25 2.5 1.25 5 3 C5 4.32 5 5.64 5 7 C3.02 5.35 1.04 3.7 -1 2 C-0.67 1.34 -0.34 0.68 0 0 Z " fill="#D1F0F9" transform="translate(201,137)"/>
<path d="M0 0 C0.598125 0.226875 1.19625 0.45375 1.8125 0.6875 C0.31510417 1.92447917 -1.18229167 3.16145833 -2.6796875 4.3984375 C-3.89801161 5.44000992 -5.05410097 6.55410097 -6.1875 7.6875 C-5.82037028 4.97074005 -5.46005401 3.07686287 -3.875 0.8125 C-2.1875 -0.3125 -2.1875 -0.3125 0 0 Z " fill="#0470B2" transform="translate(477.1875,391.3125)"/>
<path d="M0 0 C1.98 0.66 3.96 1.32 6 2 C6.33 3.65 6.66 5.3 7 7 C5.83040013 6.02433888 4.66438823 5.044375 3.5 4.0625 C2.8503125 3.51722656 2.200625 2.97195313 1.53125 2.41015625 C1.0259375 1.94480469 0.520625 1.47945313 0 1 C0 0.67 0 0.34 0 0 Z " fill="#CFECFA" transform="translate(407,346)"/>
<path d="M0 0 C0 1.65 0 3.3 0 5 C-1.98 5.99 -1.98 5.99 -4 7 C-4.33 6.01 -4.66 5.02 -5 4 C-1.125 0 -1.125 0 0 0 Z " fill="#0079CB" transform="translate(520,290)"/>
<path d="M0 0 C2.31 1.98 4.62 3.96 7 6 C4 7 4 7 1.8125 6.0625 C1.214375 5.711875 0.61625 5.36125 0 5 C0 3.35 0 1.7 0 0 Z " fill="#DFF6FE" transform="translate(416,287)"/>
<path d="M0 0 C1.32 0 2.64 0 4 0 C2.60667426 3.36720387 1.0210714 4.9859524 -2 7 C-1.125 2.25 -1.125 2.25 0 0 Z " fill="#1575AA" transform="translate(587,281)"/>
<path d="M0 0 C2.31 0 4.62 0 7 0 C5.35 1.65 3.7 3.3 2 5 C1.34 3.35 0.68 1.7 0 0 Z " fill="#E6F9FE" transform="translate(557,240)"/>
<path d="M0 0 C0.66 0.33 1.32 0.66 2 1 C2 4.76687864 1.76462683 5.91190305 0 9 C-0.66 8.67 -1.32 8.34 -2 8 C-1.67 7.34 -1.34 6.68 -1 6 C-1.66 5.34 -2.32 4.68 -3 4 C-2.01 2.68 -1.02 1.36 0 0 Z " fill="#036CB5" transform="translate(445,224)"/>
<path d="M0 0 C5.75 1.625 5.75 1.625 8 5 C7.01 5.495 7.01 5.495 6 6 C6 5.34 6 4.68 6 4 C3.69 3.34 1.38 2.68 -1 2 C-0.67 1.34 -0.34 0.68 0 0 Z " fill="#0B78B6" transform="translate(414,220)"/>
<path d="M0 0 C2.00720923 0.28674418 4.0085944 0.61866701 6 1 C4.35 2.65 2.7 4.3 1 6 C0.34 4.35 -0.32 2.7 -1 1 C-0.67 0.67 -0.34 0.34 0 0 Z " fill="#177DB6" transform="translate(552,177)"/>
<path d="M0 0 C0.66 0 1.32 0 2 0 C2.33 0.99 2.66 1.98 3 3 C2.67 3.66 2.34 4.32 2 5 C1.01 5 0.02 5 -1 5 C-1.33 5.66 -1.66 6.32 -2 7 C-2.125 4.625 -2.125 4.625 -2 2 C-1.34 1.34 -0.68 0.68 0 0 Z " fill="#027DC5" transform="translate(566,162)"/>
<path d="M0 0 C1.16959987 0.97566112 2.33561177 1.955625 3.5 2.9375 C4.1496875 3.48277344 4.799375 4.02804688 5.46875 4.58984375 C5.9740625 5.05519531 6.479375 5.52054688 7 6 C7 6.33 7 6.66 7 7 C5.35 7 3.7 7 2 7 C1.34 4.69 0.68 2.38 0 0 Z " fill="#227DB0" transform="translate(209,148)"/>
<path d="M0 0 C0 3.16880694 -0.2058242 4.43689172 -2 7 C-4.625 7.75 -4.625 7.75 -7 8 C-6.02133662 6.85373678 -5.04205413 5.70800212 -4.0625 4.5625 C-3.51722656 3.92441406 -2.97195313 3.28632813 -2.41015625 2.62890625 C-1.63204305 1.73008851 -0.84063472 0.84063472 0 0 Z " fill="#1F79AB" transform="translate(537,131)"/>
<path d="M0 0 C1.32 0.99 2.64 1.98 4 3 C3.67 4.32 3.34 5.64 3 7 C1.2925002 5.71937515 -0.37373596 4.38232443 -2 3 C-2 2.34 -2 1.68 -2 1 C-1.34 0.67 -0.68 0.34 0 0 Z " fill="#D2E9F4" transform="translate(298,97)"/>
<path d="M0 0 C4.455 1.98 4.455 1.98 9 4 C4.70600835 5.07349791 3.80504787 4.79682816 0 3 C0 2.01 0 1.02 0 0 Z " fill="#D0EEF9" transform="translate(544,544)"/>
<path d="M0 0 C1.74627478 2.61941217 2.38722388 4.03824877 3 7 C1.68 7 0.36 7 -1 7 C-1 7.66 -1 8.32 -1 9 C-1.66 9 -2.32 9 -3 9 C-2.690625 8.443125 -2.38125 7.88625 -2.0625 7.3125 C-0.94238179 4.87459567 -0.43962636 2.63775814 0 0 Z " fill="#D9F2F9" transform="translate(620,438)"/>
<path d="M0 0 C0.556875 0.495 1.11375 0.99 1.6875 1.5 C4.38162983 3.24754367 5.85375007 3.26218749 9 3 C8.34 4.32 7.68 5.64 7 7 C1.125 3.375 1.125 3.375 0 0 Z " fill="#136FA8" transform="translate(427,367)"/>
<path d="M0 0 C1 2 1 2 0.4375 4 C-1.57302108 6.79724672 -3.74418077 7.15065585 -7 8 C-6.02133662 6.85373678 -5.04205413 5.70800212 -4.0625 4.5625 C-3.51722656 3.92441406 -2.97195313 3.28632813 -2.41015625 2.62890625 C-1.63204305 1.73008851 -0.84063472 0.84063472 0 0 Z " fill="#BEE9FA" transform="translate(510,362)"/>
<path d="M0 0 C0 3.57575896 -1.08840607 5.05295935 -3 8 C-4.32 7.67 -5.64 7.34 -7 7 C-4.69 4.69 -2.38 2.38 0 0 Z " fill="#D6F8FE" transform="translate(576,297)"/>
<path d="M0 0 C1.485 0.99 1.485 0.99 3 2 C3 3.32 3 4.64 3 6 C1.68 6 0.36 6 -1 6 C-0.67 4.02 -0.34 2.04 0 0 Z " fill="#FCFAF1" transform="translate(505,289)"/>
<path d="M0 0 C0.33 0.66 0.66 1.32 1 2 C-1.84936103 5.00765886 -4.23511958 7.27845212 -8 9 C-7.04270084 7.87411986 -6.08412105 6.7493285 -5.125 5.625 C-4.59132813 4.99851562 -4.05765625 4.37203125 -3.5078125 3.7265625 C-2.38567993 2.44163349 -1.20628025 1.20628025 0 0 Z " fill="#B0DEF0" transform="translate(462,274)"/>
<path d="M0 0 C2.375 0.25 2.375 0.25 5 1 C6.3125 3.0625 6.3125 3.0625 7 5 C6.01 5 5.02 5 4 5 C1.8125 2.5 1.8125 2.5 0 0 Z " fill="#CFEBF4" transform="translate(416,218)"/>
<path d="M0 0 C1.12894876 0.93274109 2.25300876 1.87140122 3.375 2.8125 C4.00148438 3.33457031 4.62796875 3.85664063 5.2734375 4.39453125 C7 6 7 6 9 9 C5.55862568 7.4705003 2.7777867 5.54630448 0 3 C0 2.01 0 1.02 0 0 Z " fill="#1A6EA9" transform="translate(325,128)"/>
<path d="M0 0 C0.99 0.33 1.98 0.66 3 1 C-0.465 3.97 -0.465 3.97 -4 7 C-3.04065919 3.16263678 -2.76390737 2.40339772 0 0 Z " fill="#126DA0" transform="translate(508,361)"/>
<path d="M0 0 C0.33 0.99 0.66 1.98 1 3 C0.34 3.66 -0.32 4.32 -1 5 C-0.67 5.66 -0.34 6.32 0 7 C-1.32 7.33 -2.64 7.66 -4 8 C-4 4.09161134 -2.49432124 2.88405893 0 0 Z " fill="#0078CA" transform="translate(503,305)"/>
<path d="M0 0 C0.33 1.32 0.66 2.64 1 4 C-3.625 7 -3.625 7 -7 7 C-4.69 4.69 -2.38 2.38 0 0 Z " fill="#BEECFB" transform="translate(617,256)"/>
<path d="M0 0 C1.98 0.495 1.98 0.495 4 1 C4.33 2.32 4.66 3.64 5 5 C4.38125 4.814375 3.7625 4.62875 3.125 4.4375 C0.95839822 3.76313824 0.95839822 3.76313824 -1 5 C-0.67 3.35 -0.34 1.7 0 0 Z " fill="#F7FAF8" transform="translate(554,241)"/>
<path d="M0 0 C0 3.57575896 -1.08840607 5.05295935 -3 8 C-4.32 7.67 -5.64 7.34 -7 7 C-4.69 4.69 -2.38 2.38 0 0 Z " fill="#2577A9" transform="translate(508,160)"/>
<path d="M0 0 C0.66 0.33 1.32 0.66 2 1 C1.34 2.98 0.68 4.96 0 7 C-1.65 5.35 -3.3 3.7 -5 2 C-2.525 2.495 -2.525 2.495 0 3 C0 2.01 0 1.02 0 0 Z " fill="#E9FCFE" transform="translate(222,153)"/>
<path d="M0 0 C0 3.57575896 -1.08840607 5.05295935 -3 8 C-4.32 7.67 -5.64 7.34 -7 7 C-4.69 4.69 -2.38 2.38 0 0 Z " fill="#2578A9" transform="translate(524,144)"/>
<path d="M0 0 C0.66 0.33 1.32 0.66 2 1 C2 2.65 2 4.3 2 6 C0.35 6 -1.3 6 -3 6 C-2 4 -1 2 0 0 Z " fill="#037BCA" transform="translate(541,130)"/>
<path d="M0 0 C0 3 0 3 -1.4375 4.5 C-1.953125 4.995 -2.46875 5.49 -3 6 C-3.33 6.99 -3.66 7.98 -4 9 C-4.99 8.67 -5.98 8.34 -7 8 C-6.02133662 6.85373678 -5.04205413 5.70800212 -4.0625 4.5625 C-3.51722656 3.92441406 -2.97195313 3.28632812 -2.41015625 2.62890625 C-1.63204305 1.73008851 -0.84063472 0.84063472 0 0 Z " fill="#267AAB" transform="translate(556,112)"/>
<path d="M0 0 C2.1875 0.3125 2.1875 0.3125 4 1 C2.75 2.5625 2.75 2.5625 1 4 C-1.1875 3.6875 -1.1875 3.6875 -3 3 C-1.75 1.4375 -1.75 1.4375 0 0 Z " fill="#E1F7FC" transform="translate(329,538)"/>
<path d="M0 0 C3.79588866 0.54226981 5.47211993 2.20127563 8 5 C7.01 5.33 6.02 5.66 5 6 C3.35 4.02 1.7 2.04 0 0 Z " fill="#D6F1FC" transform="translate(396,335)"/>
<path d="M0 0 C1.65 0.33 3.3 0.66 5 1 C4.01 2.485 4.01 2.485 3 4 C1.68 3.67 0.36 3.34 -1 3 C-0.67 2.01 -0.34 1.02 0 0 Z " fill="#FDF8F2" transform="translate(483,312)"/>
<path d="M0 0 C2.475 0.495 2.475 0.495 5 1 C4.67 2.32 4.34 3.64 4 5 C3.34 5 2.68 5 2 5 C1.34 3.35 0.68 1.7 0 0 Z " fill="#027CC5" transform="translate(428,295)"/>
<path d="M0 0 C1.65 0 3.3 0 5 0 C3.35 1.98 1.7 3.96 0 6 C-1.24546405 3.50907189 -0.7767578 2.58919267 0 0 Z " fill="#1274A8" transform="translate(602,266)"/>
<path d="M0 0 C0.99 0.33 1.98 0.66 3 1 C-0.465 3.97 -0.465 3.97 -4 7 C-3.67 5.35 -3.34 3.7 -3 2 C-2.01 2 -1.02 2 0 2 C0 1.34 0 0.68 0 0 Z " fill="#1370A6" transform="translate(485,248)"/>
<path d="M0 0 C1.32 0 2.64 0 4 0 C3.67 0.99 3.34 1.98 3 3 C2.01 2.67 1.02 2.34 0 2 C0.33 2.99 0.66 3.98 1 5 C-0.32 5.33 -1.64 5.66 -3 6 C-2.01 4.02 -1.02 2.04 0 0 Z " fill="#037DC5" transform="translate(572,234)"/>
<path d="M0 0 C0.66 0.33 1.32 0.66 2 1 C-0.31 3.31 -2.62 5.62 -5 8 C-5.33 7.01 -5.66 6.02 -6 5 C-4.02 3.35 -2.04 1.7 0 0 Z " fill="#2275AB" transform="translate(526,208)"/>
</svg>
